font.ufo
<glyph name="ampersand" format="2">
	<unicode hex="0026"/>
	<advance width="721"/>
	<outline>
		<contour>
			<point x="224" y="-16" type="curve" smooth="yes"/>
			<point x="348" y="-16"/>
			<point x="406" y="38"/>
			<point x="436" y="84" type="curve"/>
			<point x="443" y="84" type="line"/>
			<point x="409" y="113" type="line"/>
			<point x="384" y="89"/>
			<point x="354" y="76"/>
			<point x="309" y="76" type="curve" smooth="yes"/>
			<point x="240" y="76"/>
			<point x="178" y="122"/>
			<point x="178" y="206" type="curve" smooth="yes"/>
			<point x="178" y="257"/>
			<point x="197" y="295"/>
			<point x="230" y="331" type="curve"/>
			<point x="216" y="357" type="line"/>
			<point x="216" y="352" type="line"/>
			<point x="72" y="303"/>
			<point x="22" y="237"/>
			<point x="22" y="157" type="curve" smooth="yes"/>
			<point x="22" y="65"/>
			<point x="86" y="-16"/>
		</contour>
		<contour>
			<point x="505" y="137" type="line"/>
			<point x="577" y="227"/>
			<point x="611" y="286"/>
			<point x="647" y="395" type="curve"/>
			<point x="557" y="395" type="line"/>
			<point x="541" y="299"/>
			<point x="524" y="248"/>
			<point x="470" y="164" type="curve"/>
			<point x="461" y="164" type="line"/>
		</contour>
		<contour>
			<point x="577" y="361" type="line"/>
			<point x="599" y="361" type="line"/>
			<point x="704" y="378" type="line"/>
			<point x="704" y="425" type="line"/>
			<point x="476" y="425" type="line"/>
			<point x="476" y="378" type="line"/>
		</contour>
		<contour>
			<point x="585" y="-16" type="curve" smooth="yes"/>
			<point x="616" y="-16"/>
			<point x="639" y="-12"/>
			<point x="692" y="0" type="curve"/>
			<point x="702" y="81" type="line"/>
			<point x="548" y="118" type="line"/>
			<point x="630" y="77" type="line"/>
			<point x="551" y="162"/>
			<point x="514" y="197"/>
			<point x="417" y="303" type="curve" smooth="yes"/>
			<point x="319" y="410"/>
			<point x="297" y="435"/>
			<point x="283" y="457" type="curve" smooth="yes"/>
			<point x="259" y="495"/>
			<point x="251" y="525"/>
			<point x="251" y="551" type="curve" smooth="yes"/>
			<point x="251" y="591"/>
			<point x="273" y="620"/>
			<point x="309" y="620" type="curve" smooth="yes"/>
			<point x="347" y="620"/>
			<point x="367" y="594"/>
			<point x="367" y="554" type="curve" smooth="yes"/>
			<point x="367" y="516"/>
			<point x="355" y="458"/>
			<point x="305" y="397" type="curve"/>
			<point x="334" y="375" type="line"/>
			<point x="334" y="378" type="line"/>
			<point x="444" y="419"/>
			<point x="493" y="465"/>
			<point x="493" y="534" type="curve" smooth="yes"/>
			<point x="493" y="613"/>
			<point x="427" y="664"/>
			<point x="311" y="664" type="curve" smooth="yes"/>
			<point x="189" y="664"/>
			<point x="112" y="600"/>
			<point x="112" y="498" type="curve" smooth="yes"/>
			<point x="112" y="450"/>
			<point x="125" y="400"/>
			<point x="169" y="342" type="curve" smooth="yes"/>
			<point x="186" y="319"/>
			<point x="219" y="279"/>
			<point x="292" y="188" type="curve" smooth="yes"/>
			<point x="328" y="143"/>
			<point x="373" y="82"/>
			<point x="426" y="39" type="curve" smooth="yes"/>
			<point x="477" y="-3"/>
			<point x="524" y="-16"/>
		</contour>
	</outline>
</glyph>
<glyph name="K" format="2">
	<unicode hex="004B"/>
	<advance width="708"/>
	<outline>
		<contour>
			<point x="95" y="0" type="curve"/>
			<point x="290" y="0" type="line"/>
			<point x="287" y="103"/>
			<point x="287" y="207"/>
			<point x="287" y="311" type="curve" smooth="yes"/>
			<point x="287" y="342" type="line" smooth="yes"/>
			<point x="287" y="447"/>
			<point x="287" y="551"/>
			<point x="290" y="652" type="curve"/>
			<point x="95" y="652" type="line"/>
			<point x="98" y="549"/>
			<point x="98" y="445"/>
			<point x="98" y="342" type="curve" smooth="yes"/>
			<point x="98" y="310" type="line" smooth="yes"/>
			<point x="98" y="205"/>
			<point x="98" y="101"/>
		</contour>
		<contour>
			<point x="28" y="0" type="line"/>
			<point x="342" y="0" type="line"/>
			<point x="342" y="59" type="line"/>
			<point x="212" y="74" type="line"/>
			<point x="179" y="74" type="line"/>
			<point x="28" y="59" type="line"/>
		</contour>
		<contour>
			<point x="28" y="593" type="line"/>
			<point x="179" y="578" type="line"/>
			<point x="212" y="578" type="line"/>
			<point x="357" y="593" type="line"/>
			<point x="357" y="652" type="line"/>
			<point x="28" y="652" type="line"/>
		</contour>
		<contour>
			<point x="401" y="0" type="line"/>
			<point x="703" y="0" type="line"/>
			<point x="703" y="59" type="line"/>
			<point x="567" y="74" type="line"/>
			<point x="541" y="74" type="line"/>
			<point x="401" y="59" type="line"/>
		</contour>
		<contour>
			<point x="433" y="593" type="line"/>
			<point x="514" y="578" type="line"/>
			<point x="547" y="578" type="line"/>
			<point x="665" y="593" type="line"/>
			<point x="665" y="652" type="line"/>
			<point x="433" y="652" type="line"/>
		</contour>
		<contour>
			<point x="198" y="140" type="line"/>
			<point x="632" y="652" type="line"/>
			<point x="552" y="652" type="line"/>
			<point x="241" y="266" type="line"/>
			<point x="198" y="212" type="line"/>
			<point x="194" y="212" type="line"/>
		</contour>
		<contour>
			<point x="465" y="0" type="line"/>
			<point x="682" y="0" type="line"/>
			<point x="438" y="464" type="line"/>
			<point x="314" y="316" type="line"/>
		</contour>
	</outline>
	<anchor name="aboveUC" x="368" y="672"/>
	<anchor name="belowLC" x="376" y="-20"/>
</glyph>
<glyph name="V" format="1">
	<unicode hex="0056"/>
	<advance width="656"/>
	<outline>
		<contour>
			<point x="567" y="578" type="line"/>
			<point x="656" y="593" type="line"/>
			<point x="656" y="652" type="line"/>
			<point x="445" y="652" type="line"/>
			<point x="445" y="598" type="line"/>
			<point x="554" y="578" type="line"/>
		</contour>
		<contour>
			<point x="197" y="578" type="line"/>
			<point x="348" y="598" type="line"/>
			<point x="348" y="652" type="line"/>
			<point x="5" y="652" type="line"/>
			<point x="5" y="593" type="line"/>
			<point x="156" y="578" type="line"/>
		</contour>
		<contour>
			<point x="263" y="0" type="line"/>
			<point x="383" y="0" type="line"/>
			<point x="612" y="652" type="line"/>
			<point x="543" y="652" type="line"/>
			<point x="391" y="203" type="line"/>
			<point x="246" y="652" type="line"/>
			<point x="33" y="652" type="line"/>
		</contour>
		<contour>
			<point name="aboveUC" x="368" y="682" type="move"/>
		</contour>
		<contour>
			<point name="belowLC" x="328" y="-22" type="move"/>
		</contour>
	</outline>
</glyph>
<glyph name="Z" format="1">
	<unicode hex="005A"/>
	<advance width="568"/>
	<outline>
		<contour>
			<point x="116" y="463" type="line"/>
			<point x="142" y="592" type="line"/>
			<point x="318" y="592" type="line"/>
			<point x="20" y="50" type="line"/>
			<point x="20" y="0" type="line"/>
			<point x="540" y="0" type="line"/>
			<point x="548" y="189" type="line"/>
			<point x="460" y="189" type="line"/>
			<point x="435" y="60" type="line"/>
			<point x="244" y="60" type="line"/>
			<point x="542" y="602" type="line"/>
			<point x="542" y="652" type="line"/>
			<point x="38" y="652" type="line"/>
			<point x="30" y="463" type="line"/>
		</contour>
		<contour>
			<point name="aboveUC" x="299" y="682" type="move"/>
		</contour>
		<contour>
			<point name="belowLC" x="292" y="-22" type="move"/>
		</contour>
	</outline>
</glyph>
<glyph name="asciicircum" format="2">
	<unicode hex="005E"/>
	<advance width="550"/>
	<outline>
		<contour>
			<point x="40" y="228" type="line"/>
			<point x="122" y="171" type="line"/>
			<point x="305" y="447" type="line"/>
			<point x="243" y="447" type="line"/>
			<point x="426" y="171" type="line"/>
			<point x="510" y="228" type="line"/>
			<point x="320" y="514" type="line"/>
			<point x="229" y="514" type="line"/>
		</contour>
	</outline>
</glyph>
<glyph name="b" format="1">
	<unicode hex="0062"/>
	<advance width="623"/>
	<outline>
		<contour>
			<point x="28" y="-1" type="line"/>
			<point x="233" y="-16" type="line"/>
			<point x="264" y="70" type="line"/>
			<point x="264" y="421" type="line"/>
			<point x="261" y="434" type="line"/>
			<point x="261" y="571" type="line"/>
			<point x="265" y="710" type="line"/>
			<point x="248" y="721" type="line"/>
			<point x="20" y="676" type="line"/>
			<point x="20" y="631" type="line"/>
			<point x="74" y="624" type="line"/>
			<point x="74" y="209" type="line" smooth="yes"/>
			<point x="74" y="147"/>
			<point x="73" y="44"/>
			<point x="71" y="-1" type="curve"/>
			<point x="116" y="70" type="line"/>
			<point x="28" y="50" type="line"/>
		</contour>
		<contour>
			<point x="311" y="80" type="curve" smooth="yes"/>
			<point x="261" y="80"/>
			<point x="239" y="116"/>
			<point x="202" y="167" type="curve"/>
			<point x="193" y="147" type="line"/>
			<point x="234" y="44"/>
			<point x="283" y="-16"/>
			<point x="384" y="-16" type="curve" smooth="yes"/>
			<point x="495" y="-16"/>
			<point x="601" y="83"/>
			<point x="601" y="247" type="curve" smooth="yes"/>
			<point x="601" y="418"/>
			<point x="513" y="503"/>
			<point x="403" y="503" type="curve" smooth="yes"/>
			<point x="307" y="503"/>
			<point x="240" y="446"/>
			<point x="183" y="331" type="curve"/>
			<point x="192" y="315" type="line"/>
			<point x="209" y="334"/>
			<point x="252" y="404"/>
			<point x="311" y="404" type="curve" smooth="yes"/>
			<point x="364" y="404"/>
			<point x="399" y="361"/>
			<point x="399" y="247" type="curve" smooth="yes"/>
			<point x="399" y="133"/>
			<point x="364" y="80"/>
		</contour>
		<contour>
			<point name="aboveLC" x="162" y="710" type="move"/>
		</contour>
		<contour>
			<point name="belowLC" x="294" y="-22" type="move"/>
		</contour>
	</outline>
</glyph>
<glyph name="p" format="2">
	<unicode hex="0070"/>
	<advance width="623"/>
	<outline>
		<contour>
			<point x="399" y="246" type="curve" smooth="yes"/>
			<point x="399" y="132"/>
			<point x="364" y="80"/>
			<point x="311" y="80" type="curve" smooth="yes"/>
			<point x="261" y="80"/>
			<point x="239" y="115"/>
			<point x="202" y="166" type="curve"/>
			<point x="193" y="147" type="line"/>
			<point x="234" y="44"/>
			<point x="283" y="-16"/>
			<point x="384" y="-16" type="curve" smooth="yes"/>
			<point x="495" y="-16"/>
			<point x="601" y="82"/>
			<point x="601" y="246" type="curve" smooth="yes"/>
			<point x="601" y="417"/>
			<point x="513" y="503"/>
			<point x="403" y="503" type="curve" smooth="yes"/>
			<point x="307" y="503"/>
			<point x="240" y="446"/>
			<point x="183" y="331" type="curve"/>
			<point x="192" y="315" type="line"/>
			<point x="209" y="334"/>
			<point x="252" y="404"/>
			<point x="311" y="404" type="curve" smooth="yes"/>
			<point x="364" y="404"/>
			<point x="399" y="360"/>
		</contour>
		<contour>
			<point x="243" y="-150" type="line"/>
			<point x="116" y="-150" type="line"/>
			<point x="27" y="-170" type="line"/>
			<point x="27" y="-222" type="line"/>
			<point x="316" y="-222" type="line"/>
			<point x="316" y="-170" type="line"/>
		</contour>
		<contour>
			<point x="74" y="8" type="line" smooth="yes"/>
			<point x="74" y="-53"/>
			<point x="73" y="-126"/>
			<point x="71" y="-222" type="curve"/>
			<point x="264" y="-222" type="line"/>
			<point x="262" y="-126"/>
			<point x="261" y="-53"/>
			<point x="261" y="8" type="curve" smooth="yes"/>
			<point x="261" y="69" type="line"/>
			<point x="264" y="84" type="line"/>
			<point x="264" y="399" type="line"/>
			<point x="259" y="419" type="line"/>
			<point x="253" y="494" type="line"/>
			<point x="236" y="503" type="line"/>
			<point x="17" y="434" type="line"/>
			<point x="17" y="393" type="line"/>
			<point x="71" y="384" type="line"/>
			<point x="73" y="344"/>
			<point x="74" y="327"/>
			<point x="74" y="272" type="curve" smooth="yes"/>
		</contour>
	</outline>
	<anchor name="aboveLC" x="315" y="520"/>
	<anchor name="belowLC" x="173" y="-240"/>
</glyph>
<glyph name="cent" format="2">
	<unicode hex="00A2"/>
	<advance width="560"/>
	<outline>
		<contour>
			<point x="363" y="-45" type="line"/>
			<point x="363" y="650" type="line"/>
			<point x="293" y="650" type="line"/>
			<point x="293" y="-45" type="line"/>
		</contour>
		<contour>
			<point x="335" y="512" type="curve" smooth="yes"/>
			<point x="380" y="512"/>
			<point x="405" y="509"/>
			<point x="445" y="492" type="curve"/>
			<point x="383" y="535" type="line"/>
			<point x="397" y="450" type="line" smooth="yes"/>
			<point x="409" y="379"/>
			<point x="436" y="361"/>
			<point x="480" y="361" type="curve" smooth="yes"/>
			<point x="513" y="361"/>
			<point x="531" y="378"/>
			<point x="541" y="414" type="curve"/>
			<point x="536" y="502"/>
			<point x="455" y="566"/>
			<point x="338" y="566" type="curve" smooth="yes"/>
			<point x="144" y="566"/>
			<point x="30" y="465"/>
			<point x="30" y="305" type="curve" smooth="yes"/>
			<point x="30" y="145"/>
			<point x="152" y="46"/>
			<point x="322" y="46" type="curve" smooth="yes"/>
			<point x="419" y="46"/>
			<point x="494" y="92"/>
			<point x="534" y="163" type="curve"/>
			<point x="495" y="201" type="line"/>
			<point x="455" y="162"/>
			<point x="405" y="134"/>
			<point x="337" y="134" type="curve" smooth="yes"/>
			<point x="273" y="134"/>
			<point x="210" y="206"/>
			<point x="210" y="320" type="curve" smooth="yes"/>
			<point x="210" y="446"/>
			<point x="262" y="512"/>
		</contour>
	</outline>
</glyph>
<glyph name="currency" format="2">
	<unicode hex="00A4"/>
	<advance width="560"/>
	<outline>
		<contour>
			<point x="399" y="420" type="line"/>
			<point x="458" y="449" type="line" smooth="yes"/>
			<point x="496" y="469"/>
			<point x="537" y="494"/>
			<point x="537" y="531" type="curve" smooth="yes"/>
			<point x="537" y="557"/>
			<point x="514" y="579"/>
			<point x="489" y="579" type="curve" smooth="yes"/>
			<point x="452" y="579"/>
			<point x="426" y="538"/>
			<point x="407" y="500" type="curve" smooth="yes"/>
			<point x="377" y="442" type="line"/>
		</contour>
		<contour>
			<point x="184" y="322" type="curve" smooth="yes"/>
			<point x="184" y="383"/>
			<point x="230" y="425"/>
			<point x="280" y="425" type="curve" smooth="yes"/>
			<point x="333" y="425"/>
			<point x="376" y="383"/>
			<point x="376" y="322" type="curve" smooth="yes"/>
			<point x="376" y="259"/>
			<point x="333" y="219"/>
			<point x="280" y="219" type="curve" smooth="yes"/>
			<point x="230" y="219"/>
			<point x="184" y="259"/>
		</contour>
		<contour>
			<point x="98" y="322" type="curve" smooth="yes"/>
			<point x="98" y="213"/>
			<point x="182" y="139"/>
			<point x="280" y="139" type="curve" smooth="yes"/>
			<point x="380" y="139"/>
			<point x="462" y="214"/>
			<point x="462" y="322" type="curve" smooth="yes"/>
			<point x="462" y="432"/>
			<point x="380" y="505"/>
			<point x="280" y="505" type="curve" smooth="yes"/>
			<point x="182" y="505"/>
			<point x="98" y="432"/>
		</contour>
		<contour>
			<point x="182" y="441" type="line"/>
			<point x="153" y="500" type="line" smooth="yes"/>
			<point x="133" y="538"/>
			<point x="108" y="579"/>
			<point x="71" y="579" type="curve" smooth="yes"/>
			<point x="45" y="579"/>
			<point x="23" y="556"/>
			<point x="23" y="531" type="curve" smooth="yes"/>
			<point x="23" y="494"/>
			<point x="64" y="468"/>
			<point x="102" y="449" type="curve" smooth="yes"/>
			<point x="160" y="419" type="line"/>
		</contour>
		<contour>
			<point x="161" y="224" type="line"/>
			<point x="102" y="195" type="line" smooth="yes"/>
			<point x="64" y="175"/>
			<point x="23" y="150"/>
			<point x="23" y="113" type="curve" smooth="yes"/>
			<point x="23" y="87"/>
			<point x="46" y="65"/>
			<point x="71" y="65" type="curve" smooth="yes"/>
			<point x="108" y="65"/>
			<point x="134" y="106"/>
			<point x="153" y="144" type="curve" smooth="yes"/>
			<point x="183" y="202" type="line"/>
		</contour>
		<contour>
			<point x="378" y="203" type="line"/>
			<point x="407" y="144" type="line" smooth="yes"/>
			<point x="427" y="106"/>
			<point x="452" y="65"/>
			<point x="489" y="65" type="curve" smooth="yes"/>
			<point x="515" y="65"/>
			<point x="537" y="88"/>
			<point x="537" y="113" type="curve" smooth="yes"/>
			<point x="537" y="150"/>
			<point x="496" y="176"/>
			<point x="458" y="195" type="curve" smooth="yes"/>
			<point x="400" y="225" type="line"/>
		</contour>
	</outline>
</glyph>
<glyph name="section" format="2">
	<unicode hex="00A7"/>
	<advance width="549"/>
	<outline>
		<contour>
			<point x="291" y="671" type="curve" smooth="yes"/>
			<point x="149" y="671"/>
			<point x="73" y="595"/>
			<point x="73" y="507" type="curve" smooth="yes"/>
			<point x="73" y="419"/>
			<point x="128" y="367"/>
			<point x="266" y="324" type="curve" smooth="yes"/>
			<point x="371" y="291"/>
			<point x="406" y="269"/>
			<point x="406" y="210" type="curve" smooth="yes"/>
			<point x="406" y="186"/>
			<point x="394" y="163"/>
			<point x="379" y="145" type="curve"/>
			<point x="389" y="117" type="line"/>
			<point x="456" y="148"/>
			<point x="508" y="202"/>
			<point x="508" y="265" type="curve" smooth="yes"/>
			<point x="508" y="360"/>
			<point x="461" y="415"/>
			<point x="307" y="463" type="curve" smooth="yes"/>
			<point x="231" y="487"/>
			<point x="204" y="504"/>
			<point x="204" y="545" type="curve" smooth="yes"/>
			<point x="204" y="596"/>
			<point x="244" y="616"/>
			<point x="303" y="616" type="curve" smooth="yes"/>
			<point x="345" y="616"/>
			<point x="362" y="610"/>
			<point x="414" y="586" type="curve"/>
			<point x="324" y="635" type="line"/>
			<point x="344" y="568" type="line" smooth="yes"/>
			<point x="366" y="495"/>
			<point x="397" y="479"/>
			<point x="436" y="479" type="curve" smooth="yes"/>
			<point x="462" y="479"/>
			<point x="491" y="494"/>
			<point x="496" y="535" type="curve"/>
			<point x="496" y="619"/>
			<point x="420" y="671"/>
		</contour>
		<contour>
			<point x="259" y="-113" type="curve" smooth="yes"/>
			<point x="400" y="-113"/>
			<point x="477" y="-37"/>
			<point x="477" y="51" type="curve" smooth="yes"/>
			<point x="477" y="145"/>
			<point x="422" y="191"/>
			<point x="279" y="236" type="curve" smooth="yes"/>
			<point x="179" y="267"/>
			<point x="144" y="289"/>
			<point x="144" y="348" type="curve" smooth="yes"/>
			<point x="144" y="372"/>
			<point x="156" y="395"/>
			<point x="171" y="413" type="curve"/>
			<point x="161" y="441" type="line"/>
			<point x="94" y="410"/>
			<point x="42" y="346"/>
			<point x="42" y="283" type="curve" smooth="yes"/>
			<point x="42" y="193"/>
			<point x="93" y="146"/>
			<point x="220" y="102" type="curve" smooth="yes"/>
			<point x="315" y="69"/>
			<point x="346" y="55"/>
			<point x="346" y="13" type="curve" smooth="yes"/>
			<point x="346" y="-38"/>
			<point x="305" y="-58"/>
			<point x="247" y="-58" type="curve" smooth="yes"/>
			<point x="205" y="-58"/>
			<point x="188" y="-52"/>
			<point x="136" y="-28" type="curve"/>
			<point x="226" y="-77" type="line"/>
			<point x="206" y="-10" type="line" smooth="yes"/>
			<point x="184" y="63"/>
			<point x="153" y="79"/>
			<point x="114" y="79" type="curve" smooth="yes"/>
			<point x="88" y="79"/>
			<point x="59" y="64"/>
			<point x="54" y="23" type="curve"/>
			<point x="54" y="-61"/>
			<point x="130" y="-113"/>
		</contour>
	</outline>
</glyph>
<glyph name="logicalnot" format="2">
	<unicode hex="00AC"/>
	<advance width="550"/>
	<outline>
		<contour>
			<point x="30" y="310" type="line"/>
			<point x="462" y="310" type="line"/>
			<point x="416" y="355" type="line"/>
			<point x="416" y="138" type="line"/>
			<point x="520" y="138" type="line"/>
			<point x="520" y="410" type="line"/>
			<point x="30" y="410" type="line"/>
		</contour>
	</outline>
</glyph>
<glyph name="registered" format="2">
	<unicode hex="00AE"/>
	<advance width="474"/>
	<outline>
		<contour>
			<point x="347" y="440" type="line"/>
			<point x="295" y="445" type="line"/>
			<point x="326" y="422" type="line"/>
			<point x="321" y="467" type="line" smooth="yes"/>
			<point x="317" y="501"/>
			<point x="304" y="519"/>
			<point x="246" y="520" type="curve"/>
			<point x="246" y="517" type="line"/>
			<point x="307" y="519"/>
			<point x="323" y="543"/>
			<point x="323" y="565" type="curve" smooth="yes"/>
			<point x="323" y="595"/>
			<point x="296" y="614"/>
			<point x="247" y="614" type="curve" smooth="yes"/>
			<point x="194" y="614" type="line"/>
			<point x="194" y="591" type="line"/>
			<point x="230" y="591" type="line" smooth="yes"/>
			<point x="252" y="591"/>
			<point x="266" y="581"/>
			<point x="266" y="560" type="curve" smooth="yes"/>
			<point x="266" y="544"/>
			<point x="258" y="528"/>
			<point x="230" y="528" type="curve" smooth="yes"/>
			<point x="194" y="528" type="line"/>
			<point x="194" y="506" type="line"/>
			<point x="232" y="506" type="line" smooth="yes"/>
			<point x="248" y="506"/>
			<point x="253" y="496"/>
			<point x="255" y="478" type="curve" smooth="yes"/>
			<point x="258" y="449" type="line" smooth="yes"/>
			<point x="261" y="422"/>
			<point x="280" y="413"/>
			<point x="309" y="413" type="curve" smooth="yes"/>
			<point x="325" y="413"/>
			<point x="329" y="414"/>
			<point x="347" y="418" type="curve"/>
		</contour>
		<contour>
			<point x="188" y="444" type="line"/>
			<point x="142" y="440" type="line"/>
			<point x="142" y="418" type="line"/>
			<point x="245" y="418" type="line"/>
			<point x="245" y="440" type="line"/>
			<point x="199" y="444" type="line"/>
		</contour>
		<contour>
			<point x="188" y="587" type="line"/>
			<point x="194" y="587" type="line"/>
			<point x="194" y="614" type="line"/>
			<point x="142" y="614" type="line"/>
			<point x="142" y="592" type="line"/>
		</contour>
		<contour>
			<point x="82" y="511" type="curve" smooth="yes"/>
			<point x="82" y="609"/>
			<point x="152" y="667"/>
			<point x="237" y="667" type="curve" smooth="yes"/>
			<point x="322" y="667"/>
			<point x="391" y="609"/>
			<point x="391" y="511" type="curve" smooth="yes"/>
			<point x="391" y="413"/>
			<point x="322" y="353"/>
			<point x="237" y="353" type="curve" smooth="yes"/>
			<point x="152" y="353"/>
			<point x="82" y="413"/>
		</contour>
		<contour>
			<point x="162" y="418" type="line"/>
			<point x="224" y="418" type="line"/>
			<point x="224" y="614" type="line"/>
			<point x="162" y="614" type="line"/>
		</contour>
		<contour>
			<point x="30" y="511" type="curve" smooth="yes"/>
			<point x="30" y="384"/>
			<point x="126" y="305"/>
			<point x="237" y="305" type="curve" smooth="yes"/>
			<point x="349" y="305"/>
			<point x="444" y="384"/>
			<point x="444" y="511" type="curve" smooth="yes"/>
			<point x="444" y="638"/>
			<point x="349" y="715"/>
			<point x="237" y="715" type="curve" smooth="yes"/>
			<point x="126" y="715"/>
			<point x="30" y="638"/>
		</contour>
	</outline>
</glyph>
<glyph name="acute" format="1">
	<unicode hex="00B4"/>
	<advance width="400"/>
	<outline>
		<component base="acutecmb" xOffset="177"/>
		<contour>
			<point name="_aboveLC" x="169" y="520" type="move"/>
		</contour>
	</outline>
</glyph>
<glyph name="germandbls" format="1">
	<unicode hex="00DF"/>
	<advance width="687"/>
	<outline>
		<contour>
			<point x="182" y="71" type="line"/>
			<point x="121" y="71" type="line"/>
			<point x="27" y="51" type="line"/>
			<point x="27" y="0" type="line"/>
			<point x="182" y="0" type="line"/>
		</contour>
		<contour>
			<point x="74" y="210" type="line" smooth="yes"/>
			<point x="74" y="140"/>
			<point x="73" y="70"/>
			<point x="71" y="0" type="curve"/>
			<point x="267" y="0" type="line"/>
			<point x="265" y="70"/>
			<point x="264" y="140"/>
			<point x="264" y="210" type="curve" smooth="yes"/>
			<point x="264" y="404" type="line" smooth="yes"/>
			<point x="264" y="518"/>
			<point x="269" y="592"/>
			<point x="294" y="634" type="curve" smooth="yes"/>
			<point x="311" y="663"/>
			<point x="337" y="676"/>
			<point x="377" y="676" type="curve" smooth="yes"/>
			<point x="430" y="676"/>
			<point x="466" y="627"/>
			<point x="466" y="566" type="curve" smooth="yes"/>
			<point x="466" y="526"/>
			<point x="456" y="493"/>
			<point x="410" y="456" type="curve" smooth="yes"/>
			<point x="350" y="407"/>
			<point x="314" y="383"/>
			<point x="314" y="325" type="curve" smooth="yes"/>
			<point x="314" y="247"/>
			<point x="364" y="213"/>
			<point x="439" y="184" type="curve" smooth="yes"/>
			<point x="500" y="159"/>
			<point x="521" y="143"/>
			<point x="521" y="100" type="curve" smooth="yes"/>
			<point x="521" y="62"/>
			<point x="490" y="43"/>
			<point x="442" y="43" type="curve" smooth="yes"/>
			<point x="401" y="43"/>
			<point x="374" y="45"/>
			<point x="327" y="66" type="curve"/>
			<point x="426" y="4" type="line"/>
			<point x="405" y="144" type="line"/>
			<point x="314" y="144" type="line"/>
			<point x="309" y="16" type="line"/>
			<point x="350" y="-9"/>
			<point x="401" y="-16"/>
			<point x="450" y="-16" type="curve" smooth="yes"/>
			<point x="589" y="-16"/>
			<point x="677" y="58"/>
			<point x="677" y="157" type="curve" smooth="yes"/>
			<point x="677" y="243"/>
			<point x="638" y="292"/>
			<point x="558" y="329" type="curve" smooth="yes"/>
			<point x="462" y="374"/>
			<point x="456" y="387"/>
			<point x="456" y="402" type="curve" smooth="yes"/>
			<point x="456" y="416"/>
			<point x="466" y="427"/>
			<point x="534" y="463" type="curve" smooth="yes"/>
			<point x="602" y="498"/>
			<point x="624" y="524"/>
			<point x="624" y="578" type="curve" smooth="yes"/>
			<point x="624" y="663"/>
			<point x="544" y="731"/>
			<point x="390" y="731" type="curve" smooth="yes"/>
			<point x="305" y="731"/>
			<point x="227" y="711"/>
			<point x="165" y="663" type="curve" smooth="yes"/>
			<point x="116" y="625"/>
			<point x="74" y="563"/>
			<point x="74" y="459" type="curve" smooth="yes"/>
		</contour>
	</outline>
</glyph>
<glyph name="idieresis" format="2">
	<unicode hex="00EF"/>
	<advance width="324"/>
	<outline>
		<contour>
			<point x="66" y="567" type="curve" smooth="yes"/>
			<point x="111" y="567"/>
			<point x="150" y="595"/>
			<point x="150" y="646" type="curve" smooth="yes"/>
			<point x="150" y="696"/>
			<point x="111" y="725"/>
			<point x="66" y="725" type="curve" smooth="yes"/>
			<point x="23" y="725"/>
			<point x="-18" y="696"/>
			<point x="-18" y="646" type="curve" smooth="yes"/>
			<point x="-18" y="595"/>
			<point x="23" y="567"/>
		</contour>
		<contour>
			<point x="268" y="567" type="curve" smooth="yes"/>
			<point x="313" y="567"/>
			<point x="352" y="595"/>
			<point x="352" y="646" type="curve" smooth="yes"/>
			<point x="352" y="696"/>
			<point x="313" y="725"/>
			<point x="268" y="725" type="curve" smooth="yes"/>
			<point x="225" y="725"/>
			<point x="184" y="696"/>
			<point x="184" y="646" type="curve" smooth="yes"/>
			<point x="184" y="595"/>
			<point x="225" y="567"/>
		</contour>
		<component base="dotlessi"/>
	</outline>
</glyph>
<glyph name="lcaron" format="1">
	<unicode hex="013E"/>
	<advance width="334"/>
	<outline>
		<contour>
			<point x="380" y="731" type="curve" smooth="yes"/>
			<point x="360" y="731"/>
			<point x="342" y="726"/>
			<point x="320" y="713" type="curve"/>
			<point x="315" y="514" type="line"/>
			<point x="370" y="514" type="line"/>
			<point x="403" y="579" type="line" smooth="yes"/>
			<point x="422" y="617"/>
			<point x="433" y="651"/>
			<point x="433" y="679" type="curve" smooth="yes"/>
			<point x="433" y="710"/>
			<point x="423" y="731"/>
		</contour>
		<component base="l"/>
	</outline>
</glyph>
<glyph name="Lslash" format="1">
	<unicode hex="0141"/>
	<advance width="574"/>
	<outline>
		<contour>
			<point x="404" y="469" type="line"/>
			<point x="228" y="379" type="line"/>
			<point x="228" y="285" type="line"/>
			<point x="404" y="375" type="line"/>
		</contour>
		<contour>
			<point x="188" y="364" type="line"/>
			<point x="26" y="281" type="line"/>
			<point x="26" y="187" type="line"/>
			<point x="188" y="270" type="line"/>
		</contour>
		<component base="L"/>
	</outline>
</glyph>
<glyph name="Eng" format="2">
	<unicode hex="014A"/>
	<advance width="725"/>
	<outline>
		<contour>
			<point x="24" y="0" type="line"/>
			<point x="297" y="0" type="line"/>
			<point x="297" y="59" type="line"/>
			<point x="163" y="74" type="line"/>
			<point x="131" y="74" type="line"/>
			<point x="24" y="59" type="line"/>
		</contour>
		<contour>
			<point x="511" y="0" type="line"/>
			<point x="583" y="0" type="line"/>
			<point x="583" y="235" type="line"/>
			<point x="279" y="652" type="line"/>
			<point x="24" y="652" type="line"/>
			<point x="24" y="592" type="line"/>
			<point x="128" y="585" type="line"/>
			<point x="72" y="615" type="line"/>
		</contour>
		<contour>
			<point x="109" y="0" type="line"/>
			<point x="179" y="0" type="line"/>
			<point x="179" y="592" type="line"/>
			<point x="109" y="652" type="line"/>
		</contour>
		<contour>
			<point x="428" y="593" type="line"/>
			<point x="568" y="578" type="line"/>
			<point x="599" y="578" type="line"/>
			<point x="701" y="593" type="line"/>
			<point x="701" y="652" type="line"/>
			<point x="428" y="652" type="line"/>
		</contour>
		<contour>
			<point x="616" y="652" type="line"/>
			<point x="546" y="652" type="line"/>
			<point x="548" y="148" type="line"/>
			<point x="538" y="49" type="line"/>
			<point x="538" y="-45"/>
			<point x="485" y="-96"/>
			<point x="403" y="-124" type="curve"/>
			<point x="449" y="-135" type="line"/>
			<point x="417" y="-90" type="line" smooth="yes"/>
			<point x="385" y="-46"/>
			<point x="357" y="-24"/>
			<point x="319" y="-24" type="curve" smooth="yes"/>
			<point x="270" y="-24"/>
			<point x="232" y="-59"/>
			<point x="232" y="-108" type="curve"/>
			<point x="261" y="-154"/>
			<point x="304" y="-177"/>
			<point x="366" y="-177" type="curve" smooth="yes"/>
			<point x="460" y="-177"/>
			<point x="538" y="-128"/>
			<point x="575" y="-68" type="curve" smooth="yes"/>
			<point x="614" y="-3"/>
			<point x="616" y="67"/>
			<point x="616" y="164" type="curve" smooth="yes"/>
		</contour>
	</outline>
</glyph>
<glyph name="eng" format="2">
	<unicode hex="014B"/>
	<advance width="620"/>
	<outline>
		<contour>
			<point x="23" y="0" type="line"/>
			<point x="299" y="0" type="line"/>
			<point x="299" y="51" type="line"/>
			<point x="207" y="71" type="line"/>
			<point x="109" y="71" type="line"/>
			<point x="23" y="51" type="line"/>
		</contour>
		<contour>
			<point x="67" y="0" type="curve"/>
			<point x="263" y="0" type="line"/>
			<point x="261" y="45"/>
			<point x="260" y="148"/>
			<point x="260" y="210" type="curve" smooth="yes"/>
			<point x="260" y="380" type="line"/>
			<point x="260" y="383" type="line"/>
			<point x="252" y="492" type="line"/>
			<point x="234" y="503" type="line"/>
			<point x="13" y="434" type="line"/>
			<point x="13" y="393" type="line"/>
			<point x="67" y="384" type="line"/>
			<point x="69" y="344"/>
			<point x="70" y="327"/>
			<point x="70" y="272" type="curve" smooth="yes"/>
			<point x="70" y="210" type="line" smooth="yes"/>
			<point x="70" y="148"/>
			<point x="69" y="45"/>
		</contour>
		<contour>
			<point x="311" y="-232" type="curve" smooth="yes"/>
			<point x="359" y="-232"/>
			<point x="434" y="-218"/>
			<point x="492" y="-160" type="curve" smooth="yes"/>
			<point x="539" y="-113"/>
			<point x="560" y="-67"/>
			<point x="560" y="35" type="curve" smooth="yes"/>
			<point x="560" y="336" type="line" smooth="yes"/>
			<point x="560" y="445"/>
			<point x="496" y="503"/>
			<point x="409" y="503" type="curve" smooth="yes"/>
			<point x="337" y="503"/>
			<point x="289" y="477"/>
			<point x="210" y="361" type="curve"/>
			<point x="208" y="361" type="line"/>
			<point x="211" y="321" type="line"/>
			<point x="244" y="367"/>
			<point x="295" y="396"/>
			<point x="325" y="396" type="curve" smooth="yes"/>
			<point x="357" y="396"/>
			<point x="370" y="376"/>
			<point x="370" y="323" type="curve" smooth="yes"/>
			<point x="370" y="76" type="line" smooth="yes"/>
			<point x="370" y="10"/>
			<point x="383" y="-89"/>
			<point x="374" y="-140" type="curve" smooth="yes"/>
			<point x="370" y="-162"/>
			<point x="368" y="-169"/>
			<point x="362" y="-185" type="curve"/>
			<point x="362" y="-196" type="line"/>
			<point x="374" y="-196" type="line"/>
			<point x="374" y="-185" type="line"/>
			<point x="358" y="-142" type="line" smooth="yes"/>
			<point x="341" y="-95"/>
			<point x="313" y="-72"/>
			<point x="274" y="-72" type="curve" smooth="yes"/>
			<point x="228" y="-72"/>
			<point x="198" y="-99"/>
			<point x="189" y="-152" type="curve"/>
			<point x="204" y="-205"/>
			<point x="243" y="-232"/>
		</contour>
	</outline>
</glyph>
<glyph name="florin" format="2">
	<unicode hex="0192"/>
	<advance width="560"/>
	<outline>
		<contour>
			<point x="115" y="336" type="line"/>
			<point x="475" y="336" type="line"/>
			<point x="475" y="396" type="line"/>
			<point x="115" y="396" type="line"/>
		</contour>
		<contour>
			<point x="369" y="366" type="line" smooth="yes"/>
			<point x="376" y="468"/>
			<point x="380" y="521"/>
			<point x="397" y="561" type="curve" smooth="yes"/>
			<point x="410" y="592"/>
			<point x="432" y="608"/>
			<point x="463" y="618" type="curve"/>
			<point x="412" y="614" type="line"/>
			<point x="431" y="542" type="line" smooth="yes"/>
			<point x="443" y="496"/>
			<point x="465" y="484"/>
			<point x="497" y="484" type="curve" smooth="yes"/>
			<point x="530" y="484"/>
			<point x="554" y="514"/>
			<point x="554" y="555" type="curve"/>
			<point x="538" y="605"/>
			<point x="492" y="640"/>
			<point x="413" y="640" type="curve" smooth="yes"/>
			<point x="364" y="640"/>
			<point x="314" y="625"/>
			<point x="275" y="579" type="curve" smooth="yes"/>
			<point x="237" y="537"/>
			<point x="213" y="473"/>
			<point x="205" y="360" type="curve" smooth="yes"/>
			<point x="195" y="211" type="line" smooth="yes"/>
			<point x="186" y="80"/>
			<point x="183" y="18"/>
			<point x="164" y="-27" type="curve" smooth="yes"/>
			<point x="151" y="-58"/>
			<point x="129" y="-74"/>
			<point x="98" y="-84" type="curve"/>
			<point x="149" y="-80" type="line"/>
			<point x="130" y="-8" type="line" smooth="yes"/>
			<point x="118" y="38"/>
			<point x="96" y="50"/>
			<point x="64" y="50" type="curve" smooth="yes"/>
			<point x="31" y="50"/>
			<point x="7" y="20"/>
			<point x="7" y="-21" type="curve"/>
			<point x="23" y="-71"/>
			<point x="69" y="-106"/>
			<point x="148" y="-106" type="curve" smooth="yes"/>
			<point x="197" y="-106"/>
			<point x="247" y="-91"/>
			<point x="286" y="-45" type="curve" smooth="yes"/>
			<point x="330" y="3"/>
			<point x="351" y="81"/>
			<point x="360" y="227" type="curve" smooth="yes"/>
		</contour>
	</outline>
</glyph>
<glyph name="Uhorn" format="1">
	<unicode hex="01AF"/>
	<advance width="732"/>
	<outline>
		<contour>
			<point x="293" y="280" type="curve" smooth="yes"/>
			<point x="293" y="356" type="line" smooth="yes"/>
			<point x="293" y="455"/>
			<point x="293" y="555"/>
			<point x="296" y="652" type="curve"/>
			<point x="92" y="652" type="line"/>
			<point x="95" y="553"/>
			<point x="95" y="453"/>
			<point x="95" y="356" type="curve" smooth="yes"/>
			<point x="95" y="247" type="line" smooth="yes"/>
			<point x="95" y="50"/>
			<point x="206" y="-20"/>
			<point x="355" y="-20" type="curve" smooth="yes"/>
			<point x="532" y="-20"/>
			<point x="629" y="74"/>
			<point x="629" y="287" type="curve" smooth="yes"/>
			<point x="629" y="652" type="line"/>
			<point x="558" y="652" type="line"/>
			<point x="558" y="277" type="line" smooth="yes"/>
			<point x="558" y="137"/>
			<point x="506" y="79"/>
			<point x="426" y="79" type="curve" smooth="yes"/>
			<point x="334" y="79"/>
			<point x="293" y="134"/>
		</contour>
		<contour>
			<point x="181" y="578" type="line"/>
			<point x="213" y="578" type="line"/>
			<point x="369" y="593" type="line"/>
			<point x="369" y="652" type="line"/>
			<point x="25" y="652" type="line"/>
			<point x="25" y="593" type="line"/>
		</contour>
		<contour>
			<point x="610" y="586" type="line"/>
			<point x="610" y="652" type="line"/>
			<point x="472" y="652" type="line"/>
			<point x="472" y="593" type="line"/>
			<point x="577" y="586" type="line"/>
		</contour>
		<contour>
			<point x="581" y="534" type="line"/>
			<point x="674" y="539"/>
			<point x="762" y="620"/>
			<point x="762" y="728" type="curve" smooth="yes"/>
			<point x="762" y="749"/>
			<point x="761" y="762"/>
			<point x="752" y="782" type="curve"/>
			<point x="737" y="795"/>
			<point x="722" y="800"/>
			<point x="701" y="800" type="curve" smooth="yes"/>
			<point x="665" y="800"/>
			<point x="637" y="773"/>
			<point x="637" y="743" type="curve" smooth="yes"/>
			<point x="637" y="699"/>
			<point x="674" y="683"/>
			<point x="674" y="652" type="curve" smooth="yes"/>
			<point x="674" y="617"/>
			<point x="632" y="590"/>
			<point x="575" y="584" type="curve"/>
		</contour>
		<contour>
			<point name="aboveUC" x="402" y="682" type="move"/>
		</contour>
		<contour>
			<point name="belowLC" x="386" y="-22" type="move"/>
		</contour>
	</outline>
</glyph>
<glyph name="dotlessj" format="2">
	<unicode hex="0237"/>
	<advance width="320"/>
	<outline>
		<contour>
			<point x="70" y="76" type="line" smooth="yes"/>
			<point x="70" y="10"/>
			<point x="78" y="-92"/>
			<point x="68" y="-140" type="curve" smooth="yes"/>
			<point x="60" y="-179"/>
			<point x="41" y="-194"/>
			<point x="7" y="-194" type="curve" smooth="yes"/>
			<point x="-35" y="-194"/>
			<point x="-64" y="-176"/>
			<point x="-78" y="-150" type="curve"/>
			<point x="-72" y="-200" type="line"/>
			<point x="93" y="-208" type="line"/>
			<point x="61" y="-142" type="line" smooth="yes"/>
			<point x="33" y="-85"/>
			<point x="-3" y="-66"/>
			<point x="-47" y="-66" type="curve" smooth="yes"/>
			<point x="-92" y="-66"/>
			<point x="-129" y="-103"/>
			<point x="-132" y="-158" type="curve"/>
			<point x="-111" y="-198"/>
			<point x="-67" y="-232"/>
			<point x="12" y="-232" type="curve" smooth="yes"/>
			<point x="60" y="-232"/>
			<point x="135" y="-218"/>
			<point x="193" y="-160" type="curve" smooth="yes"/>
			<point x="240" y="-113"/>
			<point x="260" y="-67"/>
			<point x="260" y="35" type="curve" smooth="yes"/>
			<point x="260" y="343" type="line"/>
			<point x="263" y="492" type="line"/>
			<point x="245" y="503" type="line"/>
			<point x="13" y="434" type="line"/>
			<point x="13" y="393" type="line"/>
			<point x="67" y="384" type="line"/>
			<point x="69" y="344"/>
			<point x="70" y="313"/>
			<point x="70" y="258" type="curve" smooth="yes"/>
		</contour>
	</outline>
	<anchor name="aboveLC" x="152" y="520"/>
</glyph>
<glyph name="schwa" format="2">
	<unicode hex="0259"/>
	<advance width="526"/>
	<outline>
		<contour>
			<point x="260" y="-16" type="curve" smooth="yes"/>
			<point x="381" y="-16"/>
			<point x="506" y="69"/>
			<point x="506" y="242" type="curve" smooth="yes"/>
			<point x="506" y="407"/>
			<point x="400" y="503"/>
			<point x="250" y="503" type="curve" smooth="yes"/>
			<point x="163" y="503"/>
			<point x="82" y="467"/>
			<point x="39" y="386" type="curve"/>
			<point x="78" y="348" type="line"/>
			<point x="105" y="374"/>
			<point x="141" y="395"/>
			<point x="188" y="395" type="curve" smooth="yes"/>
			<point x="248" y="395"/>
			<point x="306" y="345"/>
			<point x="306" y="225" type="curve" smooth="yes"/>
			<point x="306" y="80"/>
			<point x="283" y="38"/>
			<point x="251" y="38" type="curve" smooth="yes"/>
			<point x="224" y="38"/>
			<point x="198" y="67"/>
			<point x="198" y="147" type="curve" smooth="yes"/>
			<point x="198" y="198"/>
			<point x="212" y="214"/>
			<point x="264" y="214" type="curve" smooth="yes"/>
			<point x="427" y="214" type="line"/>
			<point x="427" y="271" type="line"/>
			<point x="27" y="271" type="line"/>
			<point x="22" y="246"/>
			<point x="22" y="227"/>
			<point x="22" y="198" type="curve" smooth="yes"/>
			<point x="22" y="80"/>
			<point x="94" y="-16"/>
		</contour>
	</outline>
	<anchor name="aboveLC" x="265" y="520"/>
	<anchor name="belowLC" x="270" y="-22"/>
</glyph>
<glyph name="y.sups" format="2">
	<unicode hex="02B8"/>
	<advance width="353"/>
	<outline>
		<contour>
			<point x="295" y="681" type="line"/>
			<point x="356" y="690" type="line"/>
			<point x="356" y="719" type="line"/>
			<point x="231" y="719" type="line"/>
			<point x="231" y="690" type="line"/>
			<point x="282" y="681" type="line"/>
		</contour>
		<contour>
			<point x="130" y="677" type="line"/>
			<point x="185" y="691" type="line"/>
			<point x="185" y="719" type="line"/>
			<point x="-11" y="719" type="line"/>
			<point x="-11" y="690" type="line"/>
			<point x="55" y="677" type="line"/>
		</contour>
		<contour>
			<point x="219" y="476" type="line"/>
			<point x="130" y="719" type="line"/>
			<point x="11" y="719" type="line"/>
			<point x="167" y="366" type="line"/>
		</contour>
		<contour>
			<point x="91" y="286" type="curve"/>
			<point x="112" y="275" type="line"/>
			<point x="138" y="287" type="line"/>
			<point x="109" y="311" type="line" smooth="yes"/>
			<point x="84" y="332"/>
			<point x="72" y="336"/>
			<point x="52" y="336" type="curve" smooth="yes"/>
			<point x="33" y="336"/>
			<point x="14" y="326"/>
			<point x="5" y="305" type="curve"/>
			<point x="5" y="275"/>
			<point x="36" y="255"/>
			<point x="71" y="255" type="curve" smooth="yes"/>
			<point x="134" y="255"/>
			<point x="158" y="296"/>
			<point x="193" y="381" type="curve" smooth="yes"/>
			<point x="329" y="719" type="line"/>
			<point x="286" y="719" type="line"/>
			<point x="165" y="391" type="line" smooth="yes"/>
			<point x="147" y="343"/>
			<point x="124" y="306"/>
		</contour>
	</outline>
</glyph>
<glyph name="ringhalfleftmod" format="1">
	<unicode hex="02BF"/>
	<advance width="180"/>
	<outline>
		<contour>
			<point x="20" y="674" type="curve" smooth="yes"/>
			<point x="20" y="601"/>
			<point x="71" y="554"/>
			<point x="160" y="554" type="curve"/>
			<point x="160" y="610" type="line"/>
			<point x="117" y="610"/>
			<point x="94" y="643"/>
			<point x="94" y="674" type="curve" smooth="yes"/>
			<point x="94" y="707"/>
			<point x="117" y="738"/>
			<point x="160" y="738" type="curve"/>
			<point x="160" y="794" type="line"/>
			<point x="71" y="794"/>
			<point x="20" y="747"/>
		</contour>
	</outline>
</glyph>
<glyph name="verticallinemod" format="2">
	<unicode hex="02C8"/>
	<advance width="160"/>
	<outline>
		<contour>
			<point x="18" y="547" type="line"/>
			<point x="142" y="547" type="line"/>
			<point x="148" y="755" type="line"/>
			<point x="12" y="755" type="line"/>
		</contour>
	</outline>
</glyph>
<glyph name="x.sups" format="2">
	<unicode hex="02E3"/>
	<advance width="375"/>
	<outline>
		<contour>
			<point x="24" y="719" type="line"/>
			<point x="141" y="538" type="line"/>
			<point x="222" y="406" type="line"/>
			<point x="352" y="406" type="line"/>
			<point x="228" y="597" type="line"/>
			<point x="150" y="719" type="line"/>
		</contour>
		<contour>
			<point x="65" y="445" type="line"/>
			<point x="8" y="436" type="line"/>
			<point x="8" y="406" type="line"/>
			<point x="133" y="406" type="line"/>
			<point x="133" y="436" type="line"/>
			<point x="88" y="445" type="line"/>
		</contour>
		<contour>
			<point x="136" y="681" type="line"/>
			<point x="200" y="690" type="line"/>
			<point x="200" y="719" type="line"/>
			<point x="10" y="719" type="line"/>
			<point x="10" y="690" type="line"/>
			<point x="80" y="681" type="line"/>
		</contour>
		<contour>
			<point x="259" y="449" type="line"/>
			<point x="170" y="436" type="line"/>
			<point x="170" y="406" type="line"/>
			<point x="363" y="406" type="line"/>
			<point x="363" y="436" type="line"/>
			<point x="289" y="449" type="line"/>
		</contour>
		<contour>
			<point x="302" y="681" type="line"/>
			<point x="350" y="690" type="line"/>
			<point x="350" y="719" type="line"/>
			<point x="235" y="719" type="line"/>
			<point x="235" y="690" type="line"/>
			<point x="279" y="681" type="line"/>
		</contour>
		<contour>
			<point x="78" y="406" type="line"/>
			<point x="196" y="580" type="line"/>
			<point x="168" y="595" type="line"/>
			<point x="27" y="406" type="line"/>
		</contour>
		<contour>
			<point x="289" y="719" type="line"/>
			<point x="181" y="558" type="line"/>
			<point x="205" y="541" type="line"/>
			<point x="340" y="719" type="line"/>
		</contour>
	</outline>
</glyph>
<glyph name="gravecmb" format="2">
	<unicode hex="0300"/>
	<outline>
		<contour>
			<point x="69" y="587" type="line"/>
			<point x="56" y="612"/>
			<point x="41" y="636"/>
			<point x="-6" y="713" type="curve" smooth="yes"/>
			<point x="-36" y="762"/>
			<point x="-55" y="784"/>
			<point x="-94" y="784" type="curve" smooth="yes"/>
			<point x="-124" y="784"/>
			<point x="-155" y="760"/>
			<point x="-155" y="721" type="curve" smooth="yes"/>
			<point x="-155" y="685"/>
			<point x="-124" y="657"/>
			<point x="-80" y="626" type="curve" smooth="yes"/>
			<point x="-14" y="579"/>
			<point x="6" y="565"/>
			<point x="26" y="552" type="curve"/>
		</contour>
	</outline>
	<anchor name="_aboveLC" x="0" y="507"/>
	<anchor name="aboveLC" x="0" y="784"/>
</glyph>
<glyph name="circumflexcmb" format="2">
	<unicode hex="0302"/>
	<outline>
		<contour>
			<point x="138" y="544" type="line"/>
			<point x="178" y="582" type="line"/>
			<point x="38" y="757" type="line"/>
			<point x="-38" y="757" type="line"/>
			<point x="-178" y="582" type="line"/>
			<point x="-138" y="544" type="line"/>
			<point x="50" y="679" type="line"/>
			<point x="-50" y="679" type="line"/>
		</contour>
	</outline>
	<anchor name="_aboveLC" x="0" y="520"/>
	<anchor name="aboveLC" x="0" y="768"/>
</glyph>
<glyph name="tildecmb" format="1">
	<unicode hex="0303"/>
	<outline>
		<contour>
			<point x="-183" y="589" type="curve"/>
			<point x="-136" y="569" type="line"/>
			<point x="-124" y="600"/>
			<point x="-103" y="619"/>
			<point x="-75" y="619" type="curve" smooth="yes"/>
			<point x="-50" y="619"/>
			<point x="-29" y="605"/>
			<point x="-11" y="594" type="curve" smooth="yes"/>
			<point x="11" y="582"/>
			<point x="40" y="570"/>
			<point x="67" y="570" type="curve" smooth="yes"/>
			<point x="123" y="570"/>
			<point x="172" y="622"/>
			<point x="183" y="714" type="curve"/>
			<point x="136" y="734" type="line"/>
			<point x="124" y="702"/>
			<point x="102" y="683"/>
			<point x="74" y="683" type="curve" smooth="yes"/>
			<point x="50" y="683"/>
			<point x="28" y="697"/>
			<point x="10" y="708" type="curve" smooth="yes"/>
			<point x="-12" y="720"/>
			<point x="-35" y="732"/>
			<point x="-64" y="732" type="curve" smooth="yes"/>
			<point x="-123" y="732"/>
			<point x="-172" y="682"/>
		</contour>
		<contour>
			<point name="_aboveLC" x="0" y="520" type="move"/>
		</contour>
	</outline>
</glyph>
<glyph name="caroncmb" format="1">
	<unicode hex="030C"/>
	<outline>
		<contour>
			<point x="-127" y="779" type="line"/>
			<point x="-171" y="742" type="line"/>
			<point x="-45" y="563" type="line"/>
			<point x="45" y="563" type="line"/>
			<point x="171" y="742" type="line"/>
			<point x="127" y="779" type="line"/>
			<point x="-44" y="640" type="line"/>
			<point x="44" y="640" type="line"/>
		</contour>
		<contour>
			<point name="_aboveLC" x="0" y="520" type="move"/>
		</contour>
	</outline>
</glyph>
<glyph name="horncmb" format="2">
	<unicode hex="031B"/>
	<outline>
		<contour>
			<point x="0" y="487" type="line"/>
			<point x="93" y="492"/>
			<point x="181" y="564"/>
			<point x="181" y="661" type="curve" smooth="yes"/>
			<point x="181" y="686"/>
			<point x="181" y="702"/>
			<point x="171" y="725" type="curve"/>
			<point x="156" y="738"/>
			<point x="141" y="743"/>
			<point x="120" y="743" type="curve" smooth="yes"/>
			<point x="84" y="743"/>
			<point x="56" y="716"/>
			<point x="56" y="686" type="curve" smooth="yes"/>
			<point x="56" y="642"/>
			<point x="93" y="626"/>
			<point x="93" y="595" type="curve" smooth="yes"/>
			<point x="93" y="565"/>
			<point x="51" y="543"/>
			<point x="-6" y="537" type="curve"/>
		</contour>
	</outline>
	<anchor name="_hornLC" x="0" y="487"/>
</glyph>
<glyph name="Omicrontonos" format="1">
	<unicode hex="038C"/>
	<advance width="807"/>
	<outline>
		<contour>
			<point x="4" y="426" type="curve"/>
			<point x="64" y="408" type="line"/>
			<point x="76" y="427"/>
			<point x="89" y="449"/>
			<point x="132" y="528" type="curve" smooth="yes"/>
			<point x="142" y="546"/>
			<point x="156" y="580"/>
			<point x="156" y="609" type="curve" smooth="yes"/>
			<point x="156" y="657"/>
			<point x="121" y="672"/>
			<point x="87" y="672" type="curve" smooth="yes"/>
			<point x="44" y="672"/>
			<point x="21" y="647"/>
			<point x="10" y="520" type="curve" smooth="yes"/>
			<point x="6" y="478"/>
			<point x="4" y="452"/>
		</contour>
		<component base="Omicron" xOffset="107"/>
	</outline>
</glyph>
<glyph name="Delta" format="1">
	<unicode hex="0394"/>
	<advance width="626"/>
	<outline>
		<contour>
			<point x="40" y="0" type="line"/>
			<point x="65" y="0" type="line"/>
			<point x="293" y="583" type="line"/>
			<point x="250" y="513" type="line"/>
			<point x="429" y="0" type="line"/>
			<point x="596" y="0" type="line"/>
			<point x="596" y="99" type="line"/>
			<point x="387" y="652" type="line"/>
			<point x="267" y="652" type="line"/>
			<point x="40" y="99" type="line"/>
		</contour>
		<contour>
			<point x="55" y="0" type="line"/>
			<point x="466" y="0" type="line"/>
			<point x="466" y="120" type="line"/>
			<point x="55" y="120" type="line"/>
		</contour>
	</outline>
</glyph>
<glyph name="Theta" format="1">
	<unicode hex="0398"/>
	<advance width="700"/>
	<outline>
		<contour>
			<point x="350" y="-20" type="curve" smooth="yes"/>
			<point x="519" y="-20"/>
			<point x="672" y="91"/>
			<point x="672" y="326" type="curve" smooth="yes"/>
			<point x="672" y="561"/>
			<point x="518" y="672"/>
			<point x="350" y="672" type="curve" smooth="yes"/>
			<point x="182" y="672"/>
			<point x="28" y="561"/>
			<point x="28" y="326" type="curve" smooth="yes"/>
			<point x="28" y="91"/>
			<point x="181" y="-20"/>
		</contour>
		<contour>
			<point x="350" y="41" type="curve" smooth="yes"/>
			<point x="254" y="41"/>
			<point x="218" y="154"/>
			<point x="218" y="326" type="curve" smooth="yes"/>
			<point x="218" y="497"/>
			<point x="254" y="612"/>
			<point x="350" y="612" type="curve" smooth="yes"/>
			<point x="446" y="612"/>
			<point x="482" y="497"/>
			<point x="482" y="326" type="curve" smooth="yes"/>
			<point x="482" y="154"/>
			<point x="446" y="41"/>
		</contour>
		<contour>
			<point x="381" y="322" type="line"/>
			<point x="396" y="225" type="line"/>
			<point x="449" y="225" type="line"/>
			<point x="449" y="432" type="line"/>
			<point x="396" y="432" type="line"/>
			<point x="381" y="340" type="line"/>
		</contour>
		<contour>
			<point x="319" y="322" type="line"/>
			<point x="319" y="340" type="line"/>
			<point x="304" y="432" type="line"/>
			<point x="251" y="432" type="line"/>
			<point x="251" y="225" type="line"/>
			<point x="304" y="225" type="line"/>
		</contour>
		<contour>
			<point x="289" y="395" type="line"/>
			<point x="289" y="261" type="line"/>
			<point x="411" y="261" type="line"/>
			<point x="411" y="395" type="line"/>
		</contour>
	</outline>
</glyph>
<glyph name="Omega" format="1">
	<unicode hex="03A9"/>
	<advance width="750"/>
	<outline>
		<contour>
			<point x="98" y="200" type="line"/>
			<point x="28" y="200" type="line"/>
			<point x="31" y="0" type="line"/>
			<point x="340" y="0" type="line"/>
			<point x="340" y="60" type="line"/>
			<point x="297" y="130" type="line"/>
			<point x="54" y="130" type="line"/>
			<point x="138" y="0" type="line"/>
		</contour>
		<contour>
			<point x="652" y="200" type="line"/>
			<point x="612" y="0" type="line"/>
			<point x="696" y="130" type="line"/>
			<point x="453" y="130" type="line"/>
			<point x="410" y="60" type="line"/>
			<point x="410" y="0" type="line"/>
			<point x="719" y="0" type="line"/>
			<point x="722" y="200" type="line"/>
		</contour>
		<contour>
			<point x="375" y="612" type="curve" smooth="yes"/>
			<point x="490" y="612"/>
			<point x="499" y="487"/>
			<point x="499" y="407" type="curve" smooth="yes"/>
			<point x="499" y="298"/>
			<point x="464" y="180"/>
			<point x="410" y="110" type="curve"/>
			<point x="410" y="0" type="line"/>
			<point x="515" y="0" type="line"/>
			<point x="515" y="134" type="line"/>
			<point x="606" y="183"/>
			<point x="694" y="284"/>
			<point x="694" y="404" type="curve" smooth="yes"/>
			<point x="694" y="539"/>
			<point x="607" y="672"/>
			<point x="375" y="672" type="curve" smooth="yes"/>
			<point x="143" y="672"/>
			<point x="56" y="539"/>
			<point x="56" y="404" type="curve" smooth="yes"/>
			<point x="56" y="284"/>
			<point x="144" y="183"/>
			<point x="235" y="134" type="curve"/>
			<point x="235" y="0" type="line"/>
			<point x="340" y="0" type="line"/>
			<point x="340" y="110" type="line"/>
			<point x="286" y="180"/>
			<point x="251" y="298"/>
			<point x="251" y="407" type="curve" smooth="yes"/>
			<point x="251" y="487"/>
			<point x="260" y="612"/>
		</contour>
	</outline>
</glyph>
<glyph name="alpha" format="1">
	<unicode hex="03B1"/>
	<advance width="599"/>
	<outline>
		<contour>
			<point x="230" y="-16" type="curve" smooth="yes"/>
			<point x="298" y="-16"/>
			<point x="351" y="16"/>
			<point x="378" y="82" type="curve"/>
			<point x="359" y="80" type="line"/>
			<point x="364" y="25"/>
			<point x="421" y="-16"/>
			<point x="477" y="-16" type="curve" smooth="yes"/>
			<point x="534" y="-16"/>
			<point x="582" y="17"/>
			<point x="599" y="56" type="curve"/>
			<point x="583" y="95" type="line"/>
			<point x="575" y="91"/>
			<point x="565" y="89"/>
			<point x="550" y="89" type="curve" smooth="yes"/>
			<point x="521" y="89"/>
			<point x="508" y="112"/>
			<point x="508" y="152" type="curve" smooth="yes"/>
			<point x="508" y="248"/>
			<point x="523" y="353"/>
			<point x="543" y="486" type="curve"/>
			<point x="525" y="498" type="line"/>
			<point x="355" y="474" type="line"/>
			<point x="349" y="402" type="line"/>
			<point x="341" y="171" type="line" smooth="yes"/>
			<point x="338" y="97"/>
			<point x="321" y="74"/>
			<point x="288" y="74" type="curve" smooth="yes"/>
			<point x="243" y="74"/>
			<point x="202" y="124"/>
			<point x="202" y="296" type="curve" smooth="yes"/>
			<point x="202" y="385"/>
			<point x="238" y="414"/>
			<point x="275" y="414" type="curve" smooth="yes"/>
			<point x="305" y="414"/>
			<point x="335" y="401"/>
			<point x="354" y="373" type="curve"/>
			<point x="365" y="380" type="line"/>
			<point x="350" y="454"/>
			<point x="309" y="503"/>
			<point x="239" y="503" type="curve" smooth="yes"/>
			<point x="132" y="503"/>
			<point x="26" y="407"/>
			<point x="26" y="244" type="curve" smooth="yes"/>
			<point x="26" y="65"/>
			<point x="129" y="-16"/>
		</contour>
		<contour>
			<point name="aboveLC" x="332" y="520" type="move"/>
		</contour>
		<contour>
			<point name="belowLC" x="326" y="-22" type="move"/>
		</contour>
	</outline>
</glyph>
<glyph name="rho" format="1">
	<unicode hex="03C1"/>
	<advance width="574"/>
	<outline>
		<contour>
			<point x="45" y="-175" type="line"/>
			<point x="65" y="-195" type="line"/>
			<point x="260" y="-160" type="line"/>
			<point x="224" y="55" type="line"/>
			<point x="230" y="82" type="line"/>
			<point x="224" y="316" type="line" smooth="yes"/>
			<point x="222" y="413"/>
			<point x="248" y="439"/>
			<point x="277" y="439" type="curve" smooth="yes"/>
			<point x="318" y="439"/>
			<point x="371" y="337"/>
			<point x="371" y="194" type="curve" smooth="yes"/>
			<point x="371" y="99"/>
			<point x="345" y="64"/>
			<point x="302" y="64" type="curve" smooth="yes"/>
			<point x="253" y="64"/>
			<point x="225" y="95"/>
			<point x="206" y="113" type="curve"/>
			<point x="190" y="85" type="line"/>
			<point x="219" y="41"/>
			<point x="260" y="-16"/>
			<point x="343" y="-16" type="curve" smooth="yes"/>
			<point x="431" y="-16"/>
			<point x="548" y="52"/>
			<point x="548" y="231" type="curve" smooth="yes"/>
			<point x="548" y="405"/>
			<point x="465" y="503"/>
			<point x="297" y="503" type="curve" smooth="yes"/>
			<point x="132" y="503"/>
			<point x="56" y="417"/>
			<point x="56" y="253" type="curve" smooth="yes"/>
			<point x="56" y="66" type="line"/>
		</contour>
		<contour>
			<point name="aboveLC" x="309" y="520" type="move"/>
		</contour>
	</outline>
</glyph>
<glyph name="sigma.end" format="1">
	<unicode hex="03C2"/>
	<advance width="469"/>
	<outline>
		<contour>
			<point x="143" y="-213" type="line"/>
			<point x="345" y="-211"/>
			<point x="443" y="-112"/>
			<point x="443" y="-14" type="curve" smooth="yes"/>
			<point x="443" y="47"/>
			<point x="413" y="100"/>
			<point x="327" y="125" type="curve" smooth="yes"/>
			<point x="286" y="137" type="line" smooth="yes"/>
			<point x="215" y="158"/>
			<point x="174" y="195"/>
			<point x="174" y="279" type="curve" smooth="yes"/>
			<point x="174" y="380"/>
			<point x="217" y="459"/>
			<point x="296" y="459" type="curve" smooth="yes"/>
			<point x="314" y="459"/>
			<point x="332" y="458"/>
			<point x="350" y="454" type="curve"/>
			<point x="337" y="470" type="line"/>
			<point x="217" y="482" type="line"/>
			<point x="283" y="403" type="line" smooth="yes"/>
			<point x="306" y="375"/>
			<point x="330" y="358"/>
			<point x="369" y="358" type="curve" smooth="yes"/>
			<point x="409" y="358"/>
			<point x="442" y="380"/>
			<point x="442" y="436" type="curve"/>
			<point x="415" y="477"/>
			<point x="365" y="503"/>
			<point x="298" y="503" type="curve" smooth="yes"/>
			<point x="119" y="503"/>
			<point x="26" y="392"/>
			<point x="26" y="236" type="curve" smooth="yes"/>
			<point x="26" y="94"/>
			<point x="93" y="35"/>
			<point x="187" y="10" type="curve" smooth="yes"/>
			<point x="247" y="-6" type="line" smooth="yes"/>
			<point x="297" y="-19"/>
			<point x="317" y="-40"/>
			<point x="317" y="-63" type="curve" smooth="yes"/>
			<point x="317" y="-91"/>
			<point x="286" y="-122"/>
			<point x="134" y="-130" type="curve"/>
		</contour>
	</outline>
</glyph>
<glyph name="omega" format="1">
	<unicode hex="03C9"/>
	<advance width="779"/>
	<outline>
		<contour>
			<point x="235" y="-16" type="curve" smooth="yes"/>
			<point x="324" y="-16"/>
			<point x="375" y="29"/>
			<point x="393" y="139" type="curve"/>
			<point x="385" y="139" type="line"/>
			<point x="403" y="27"/>
			<point x="450" y="-16"/>
			<point x="537" y="-16" type="curve" smooth="yes"/>
			<point x="667" y="-16"/>
			<point x="753" y="92"/>
			<point x="753" y="214" type="curve" smooth="yes"/>
			<point x="753" y="419"/>
			<point x="646" y="497"/>
			<point x="467" y="503" type="curve"/>
			<point x="460" y="460" type="line"/>
			<point x="552" y="421"/>
			<point x="587" y="350"/>
			<point x="587" y="251" type="curve" smooth="yes"/>
			<point x="587" y="158"/>
			<point x="558" y="82"/>
			<point x="497" y="82" type="curve" smooth="yes"/>
			<point x="466" y="82"/>
			<point x="452" y="118"/>
			<point x="452" y="167" type="curve" smooth="yes"/>
			<point x="452" y="229"/>
			<point x="464" y="307"/>
			<point x="470" y="384" type="curve"/>
			<point x="451" y="396" type="line"/>
			<point x="314" y="373" type="line"/>
			<point x="314" y="302"/>
			<point x="325" y="234"/>
			<point x="325" y="170" type="curve" smooth="yes"/>
			<point x="325" y="109"/>
			<point x="306" y="82"/>
			<point x="282" y="82" type="curve" smooth="yes"/>
			<point x="244" y="82"/>
			<point x="192" y="123"/>
			<point x="192" y="254" type="curve" smooth="yes"/>
			<point x="192" y="357"/>
			<point x="223" y="424"/>
			<point x="309" y="460" type="curve"/>
			<point x="299" y="503" type="line"/>
			<point x="133" y="492"/>
			<point x="26" y="409"/>
			<point x="26" y="215" type="curve" smooth="yes"/>
			<point x="26" y="82"/>
			<point x="120" y="-16"/>
		</contour>
		<contour>
			<point name="aboveLC" x="390" y="520" type="move"/>
		</contour>
		<contour>
			<point name="belowLC" x="327" y="-22" type="move"/>
		</contour>
	</outline>
</glyph>
<glyph name="koppa" format="2">
	<unicode hex="03D9"/>
	<advance width="556"/>
	<outline>
		<contour>
			<point x="225" y="36" type="line"/>
			<point x="208" y="-175" type="line"/>
			<point x="228" y="-195" type="line"/>
			<point x="388" y="-160" type="line"/>
			<point x="360" y="36" type="line"/>
		</contour>
		<component base="omicron"/>
	</outline>
	<anchor name="aboveLC" x="278" y="520"/>
</glyph>
<glyph name="stigma" format="2">
	<unicode hex="03DB"/>
	<advance width="500"/>
	<outline>
		<contour>
			<point x="280" y="-206" type="curve"/>
			<point x="359" y="-206" type="line"/>
			<point x="416" y="-136"/>
			<point x="438" y="-89"/>
			<point x="438" y="-34" type="curve" smooth="yes"/>
			<point x="438" y="39"/>
			<point x="411" y="80"/>
			<point x="281" y="127" type="curve" smooth="yes"/>
			<point x="178" y="165"/>
			<point x="117" y="181"/>
			<point x="117" y="241" type="curve" smooth="yes"/>
			<point x="117" y="286"/>
			<point x="139" y="314"/>
			<point x="233" y="320" type="curve" smooth="yes"/>
			<point x="295" y="324" type="line" smooth="yes"/>
			<point x="410" y="330"/>
			<point x="445" y="361"/>
			<point x="486" y="535" type="curve" smooth="yes"/>
			<point x="498" y="586" type="line"/>
			<point x="428" y="597" type="line"/>
			<point x="414" y="556" type="line" smooth="yes"/>
			<point x="403" y="523"/>
			<point x="394" y="496"/>
			<point x="335" y="490" type="curve" smooth="yes"/>
			<point x="243" y="480" type="line" smooth="yes"/>
			<point x="128" y="467"/>
			<point x="32" y="416"/>
			<point x="32" y="229" type="curve" smooth="yes"/>
			<point x="32" y="105"/>
			<point x="86" y="33"/>
			<point x="197" y="-8" type="curve" smooth="yes"/>
			<point x="294" y="-44"/>
			<point x="315" y="-49"/>
			<point x="315" y="-96" type="curve" smooth="yes"/>
			<point x="315" y="-123"/>
			<point x="301" y="-160"/>
		</contour>
	</outline>
</glyph>
<glyph name="Lje" format="2">
	<unicode hex="0409"/>
	<advance width="944"/>
	<outline>
		<contour>
			<point x="107" y="-16" type="curve" smooth="yes"/>
			<point x="184" y="-16"/>
			<point x="231" y="48"/>
			<point x="267" y="190" type="curve" smooth="yes"/>
			<point x="305" y="341"/>
			<point x="315" y="477"/>
			<point x="325" y="652" type="curve"/>
			<point x="262" y="652" type="line"/>
			<point x="255" y="477"/>
			<point x="241" y="356"/>
			<point x="198" y="207" type="curve" smooth="yes"/>
			<point x="188" y="169"/>
			<point x="175" y="142"/>
			<point x="161" y="114" type="curve"/>
			<point x="161" y="103" type="line"/>
			<point x="189" y="103" type="line"/>
			<point x="189" y="114" type="line"/>
			<point x="160" y="140"/>
			<point x="136" y="153"/>
			<point x="99" y="153" type="curve" smooth="yes"/>
			<point x="47" y="153"/>
			<point x="17" y="123"/>
			<point x="4" y="91" type="curve"/>
			<point x="4" y="16"/>
			<point x="43" y="-16"/>
		</contour>
		<contour>
			<point x="289" y="578" type="line"/>
			<point x="295" y="578" type="line"/>
			<point x="295" y="652" type="line"/>
			<point x="168" y="652" type="line"/>
			<point x="168" y="593" type="line"/>
		</contour>
		<contour>
			<point x="295" y="589" type="line"/>
			<point x="520" y="589" type="line"/>
			<point x="520" y="652" type="line"/>
			<point x="295" y="652" type="line"/>
		</contour>
		<contour>
			<point x="353" y="0" type="line"/>
			<point x="522" y="0" type="line"/>
			<point x="522" y="74" type="line"/>
			<point x="504" y="74" type="line"/>
			<point x="353" y="59" type="line"/>
		</contour>
		<contour>
			<point x="418" y="0" type="curve"/>
			<point x="622" y="0" type="line"/>
			<point x="619" y="103"/>
			<point x="619" y="207"/>
			<point x="619" y="311" type="curve" smooth="yes"/>
			<point x="619" y="378" type="line" smooth="yes"/>
			<point x="619" y="447"/>
			<point x="619" y="551"/>
			<point x="622" y="652" type="curve"/>
			<point x="418" y="652" type="line"/>
			<point x="421" y="549"/>
			<point x="421" y="445"/>
			<point x="421" y="342" type="curve" smooth="yes"/>
			<point x="421" y="310" type="line" smooth="yes"/>
			<point x="421" y="205"/>
			<point x="421" y="101"/>
		</contour>
		<contour>
			<point x="522" y="0" type="line"/>
			<point x="632" y="0" type="line" smooth="yes"/>
			<point x="890" y="0"/>
			<point x="931" y="111"/>
			<point x="931" y="210" type="curve" smooth="yes"/>
			<point x="931" y="308"/>
			<point x="864" y="406"/>
			<point x="680" y="406" type="curve" smooth="yes"/>
			<point x="621" y="406"/>
			<point x="581" y="403"/>
			<point x="522" y="396" type="curve"/>
			<point x="522" y="335" type="line"/>
			<point x="557" y="341"/>
			<point x="582" y="345"/>
			<point x="621" y="345" type="curve" smooth="yes"/>
			<point x="700" y="345"/>
			<point x="739" y="298"/>
			<point x="739" y="205" type="curve" smooth="yes"/>
			<point x="739" y="110"/>
			<point x="698" y="62"/>
			<point x="630" y="62" type="curve" smooth="yes"/>
			<point x="522" y="62" type="line"/>
		</contour>
		<contour>
			<point x="519" y="578" type="line"/>
			<point x="535" y="578" type="line"/>
			<point x="686" y="593" type="line"/>
			<point x="686" y="652" type="line"/>
			<point x="519" y="652" type="line"/>
		</contour>
	</outline>
</glyph>
<glyph name="Pe" format="2">
	<unicode hex="041F"/>
	<advance width="746"/>
	<outline>
		<contour>
			<point x="93" y="0" type="curve"/>
			<point x="297" y="0" type="line"/>
			<point x="294" y="103"/>
			<point x="294" y="207"/>
			<point x="294" y="311" type="curve" smooth="yes"/>
			<point x="294" y="342" type="line" smooth="yes"/>
			<point x="294" y="447"/>
			<point x="294" y="551"/>
			<point x="297" y="652" type="curve"/>
			<point x="93" y="652" type="line"/>
			<point x="96" y="549"/>
			<point x="96" y="445"/>
			<point x="96" y="342" type="curve" smooth="yes"/>
			<point x="96" y="310" type="line" smooth="yes"/>
			<point x="96" y="205"/>
			<point x="96" y="101"/>
		</contour>
		<contour>
			<point x="449" y="0" type="curve"/>
			<point x="653" y="0" type="line"/>
			<point x="650" y="103"/>
			<point x="650" y="207"/>
			<point x="650" y="310" type="curve" smooth="yes"/>
			<point x="650" y="342" type="line" smooth="yes"/>
			<point x="650" y="447"/>
			<point x="650" y="551"/>
			<point x="653" y="652" type="curve"/>
			<point x="449" y="652" type="line"/>
			<point x="452" y="549"/>
			<point x="452" y="445"/>
			<point x="452" y="342" type="curve" smooth="yes"/>
			<point x="452" y="311" type="line" smooth="yes"/>
			<point x="452" y="205"/>
			<point x="452" y="101"/>
		</contour>
		<contour>
			<point x="28" y="0" type="line"/>
			<point x="357" y="0" type="line"/>
			<point x="357" y="59" type="line"/>
			<point x="205" y="74" type="line"/>
			<point x="172" y="74" type="line"/>
			<point x="28" y="59" type="line"/>
		</contour>
		<contour>
			<point x="389" y="0" type="line"/>
			<point x="718" y="0" type="line"/>
			<point x="718" y="59" type="line"/>
			<point x="569" y="74" type="line"/>
			<point x="538" y="74" type="line"/>
			<point x="389" y="59" type="line"/>
		</contour>
		<contour>
			<point x="28" y="593" type="line"/>
			<point x="179" y="578" type="line"/>
			<point x="195" y="578" type="line"/>
			<point x="195" y="652" type="line"/>
			<point x="28" y="652" type="line"/>
		</contour>
		<contour>
			<point x="551" y="578" type="line"/>
			<point x="567" y="578" type="line"/>
			<point x="718" y="593" type="line"/>
			<point x="718" y="652" type="line"/>
			<point x="551" y="652" type="line"/>
		</contour>
		<contour>
			<point x="195" y="589" type="line"/>
			<point x="551" y="589" type="line"/>
			<point x="551" y="652" type="line"/>
			<point x="195" y="652" type="line"/>
		</contour>
	</outline>
</glyph>
<glyph name="Soft" format="2">
	<unicode hex="042C"/>
	<advance width="631"/>
	<outline>
		<contour>
			<point x="197" y="0" type="line"/>
			<point x="307" y="0" type="line" smooth="yes"/>
			<point x="565" y="0"/>
			<point x="617" y="111"/>
			<point x="617" y="210" type="curve" smooth="yes"/>
			<point x="617" y="308"/>
			<point x="550" y="406"/>
			<point x="366" y="406" type="curve" smooth="yes"/>
			<point x="307" y="406"/>
			<point x="256" y="403"/>
			<point x="197" y="396" type="curve"/>
			<point x="197" y="335" type="line"/>
			<point x="232" y="341"/>
			<point x="268" y="345"/>
			<point x="307" y="345" type="curve" smooth="yes"/>
			<point x="386" y="345"/>
			<point x="425" y="298"/>
			<point x="425" y="205" type="curve" smooth="yes"/>
			<point x="425" y="110"/>
			<point x="373" y="62"/>
			<point x="305" y="62" type="curve" smooth="yes"/>
			<point x="197" y="62" type="line"/>
		</contour>
		<contour>
			<point x="93" y="0" type="curve"/>
			<point x="297" y="0" type="line"/>
			<point x="294" y="103"/>
			<point x="294" y="207"/>
			<point x="294" y="311" type="curve" smooth="yes"/>
			<point x="294" y="375" type="line" smooth="yes"/>
			<point x="294" y="447"/>
			<point x="294" y="551"/>
			<point x="297" y="652" type="curve"/>
			<point x="93" y="652" type="line"/>
			<point x="96" y="549"/>
			<point x="96" y="445"/>
			<point x="96" y="342" type="curve" smooth="yes"/>
			<point x="96" y="310" type="line" smooth="yes"/>
			<point x="96" y="205"/>
			<point x="96" y="101"/>
		</contour>
		<contour>
			<point x="28" y="593" type="line"/>
			<point x="172" y="578" type="line"/>
			<point x="215" y="578" type="line"/>
			<point x="367" y="593" type="line"/>
			<point x="367" y="652" type="line"/>
			<point x="28" y="652" type="line"/>
		</contour>
		<contour>
			<point x="28" y="0" type="line"/>
			<point x="197" y="0" type="line"/>
			<point x="197" y="74" type="line"/>
			<point x="179" y="74" type="line"/>
			<point x="28" y="59" type="line"/>
		</contour>
	</outline>
</glyph>
<glyph name="be" format="2">
	<unicode hex="0431"/>
	<advance width="585"/>
	<outline>
		<contour>
			<point x="103" y="271" type="line"/>
			<point x="109" y="410"/>
			<point x="138" y="471"/>
			<point x="183" y="498" type="curve" smooth="yes"/>
			<point x="233" y="528"/>
			<point x="281" y="538"/>
			<point x="379" y="549" type="curve" smooth="yes"/>
			<point x="448" y="557"/>
			<point x="494" y="560"/>
			<point x="521" y="593" type="curve" smooth="yes"/>
			<point x="545" y="622"/>
			<point x="560" y="682"/>
			<point x="562" y="762" type="curve"/>
			<point x="511" y="774" type="line"/>
			<point x="494" y="733" type="line"/>
			<point x="453" y="728"/>
			<point x="402" y="719"/>
			<point x="362" y="714" type="curve" smooth="yes"/>
			<point x="264" y="701"/>
			<point x="192" y="687"/>
			<point x="134" y="639" type="curve" smooth="yes"/>
			<point x="66" y="583"/>
			<point x="32" y="469"/>
			<point x="32" y="325" type="curve" smooth="yes"/>
			<point x="32" y="65"/>
			<point x="151" y="-16"/>
			<point x="296" y="-16" type="curve" smooth="yes"/>
			<point x="444" y="-16"/>
			<point x="563" y="59"/>
			<point x="563" y="241" type="curve" smooth="yes"/>
			<point x="563" y="377"/>
			<point x="479" y="462"/>
			<point x="315" y="462" type="curve" smooth="yes"/>
			<point x="217" y="462"/>
			<point x="124" y="406"/>
			<point x="88" y="273" type="curve"/>
		</contour>
		<contour>
			<point x="298" y="407" type="curve" smooth="yes"/>
			<point x="336" y="407"/>
			<point x="361" y="370"/>
			<point x="361" y="235" type="curve" smooth="yes"/>
			<point x="361" y="87"/>
			<point x="341" y="39"/>
			<point x="301" y="39" type="curve" smooth="yes"/>
			<point x="258" y="39"/>
			<point x="232" y="79"/>
			<point x="232" y="235" type="curve" smooth="yes"/>
			<point x="232" y="368"/>
			<point x="262" y="407"/>
		</contour>
	</outline>
</glyph>
<glyph name="che" format="2">
	<unicode hex="0447"/>
	<advance width="596"/>
	<outline>
		<contour>
			<point x="8" y="436" type="line"/>
			<point x="92" y="416" type="line"/>
			<point x="178" y="416" type="line"/>
			<point x="269" y="436" type="line"/>
			<point x="269" y="487" type="line"/>
			<point x="8" y="487" type="line"/>
		</contour>
		<contour>
			<point x="45" y="382" type="line" smooth="yes"/>
			<point x="45" y="234"/>
			<point x="90" y="175"/>
			<point x="230" y="175" type="curve" smooth="yes"/>
			<point x="298" y="175"/>
			<point x="356" y="189"/>
			<point x="400" y="199" type="curve"/>
			<point x="400" y="256" type="line"/>
			<point x="364" y="254"/>
			<point x="338" y="252"/>
			<point x="303" y="252" type="curve" smooth="yes"/>
			<point x="241" y="252"/>
			<point x="225" y="286"/>
			<point x="225" y="348" type="curve" smooth="yes"/>
			<point x="225" y="420"/>
			<point x="227" y="449"/>
			<point x="228" y="487" type="curve"/>
			<point x="45" y="487" type="line"/>
		</contour>
		<contour>
			<point x="289" y="0" type="line"/>
			<point x="573" y="0" type="line"/>
			<point x="573" y="51" type="line"/>
			<point x="479" y="71" type="line"/>
			<point x="383" y="71" type="line"/>
			<point x="289" y="51" type="line"/>
		</contour>
		<contour>
			<point x="298" y="436" type="line"/>
			<point x="383" y="416" type="line"/>
			<point x="479" y="416" type="line"/>
			<point x="573" y="436" type="line"/>
			<point x="573" y="487" type="line"/>
			<point x="298" y="487" type="line"/>
		</contour>
		<contour>
			<point x="333" y="0" type="curve"/>
			<point x="529" y="0" type="line"/>
			<point x="527" y="45"/>
			<point x="526" y="148"/>
			<point x="526" y="210" type="curve" smooth="yes"/>
			<point x="526" y="277" type="line" smooth="yes"/>
			<point x="526" y="339"/>
			<point x="527" y="442"/>
			<point x="529" y="487" type="curve"/>
			<point x="333" y="487" type="line"/>
			<point x="335" y="442"/>
			<point x="336" y="339"/>
			<point x="336" y="277" type="curve" smooth="yes"/>
			<point x="336" y="210" type="line" smooth="yes"/>
			<point x="336" y="148"/>
			<point x="335" y="45"/>
		</contour>
	</outline>
	<anchor name="aboveLC" x="298" y="520"/>
</glyph>
<glyph name="hard" format="2">
	<unicode hex="044A"/>
	<advance width="650"/>
	<outline>
		<contour>
			<point x="22" y="298" type="line"/>
			<point x="91" y="298" type="line"/>
			<point x="125" y="487" type="line"/>
			<point x="57" y="430" type="line"/>
			<point x="285" y="430" type="line"/>
			<point x="285" y="487" type="line"/>
			<point x="24" y="487" type="line"/>
		</contour>
		<contour>
			<point x="127" y="0" type="line"/>
			<point x="285" y="0" type="line"/>
			<point x="285" y="71" type="line"/>
			<point x="237" y="71" type="line"/>
			<point x="127" y="51" type="line"/>
		</contour>
		<contour>
			<point x="187" y="0" type="curve"/>
			<point x="383" y="0" type="line"/>
			<point x="381" y="45"/>
			<point x="380" y="148"/>
			<point x="380" y="210" type="curve" smooth="yes"/>
			<point x="380" y="277" type="line" smooth="yes"/>
			<point x="380" y="339"/>
			<point x="381" y="442"/>
			<point x="383" y="487" type="curve"/>
			<point x="187" y="487" type="line"/>
			<point x="189" y="442"/>
			<point x="190" y="339"/>
			<point x="190" y="277" type="curve" smooth="yes"/>
			<point x="190" y="210" type="line" smooth="yes"/>
			<point x="190" y="148"/>
			<point x="189" y="45"/>
		</contour>
		<contour>
			<point x="285" y="0" type="line"/>
			<point x="392" y="0" type="line" smooth="yes"/>
			<point x="602" y="0"/>
			<point x="638" y="69"/>
			<point x="638" y="156" type="curve" smooth="yes"/>
			<point x="638" y="227"/>
			<point x="597" y="304"/>
			<point x="451" y="304" type="curve" smooth="yes"/>
			<point x="403" y="304"/>
			<point x="337" y="297"/>
			<point x="285" y="282" type="curve"/>
			<point x="285" y="242" type="line"/>
			<point x="318" y="250"/>
			<point x="351" y="253"/>
			<point x="384" y="253" type="curve" smooth="yes"/>
			<point x="437" y="253"/>
			<point x="468" y="226"/>
			<point x="468" y="154" type="curve" smooth="yes"/>
			<point x="468" y="81"/>
			<point x="446" y="52"/>
			<point x="386" y="52" type="curve" smooth="yes"/>
			<point x="285" y="52" type="line"/>
		</contour>
		<contour>
			<point x="285" y="416" type="line"/>
			<point x="333" y="416" type="line"/>
			<point x="443" y="436" type="line"/>
			<point x="443" y="487" type="line"/>
			<point x="285" y="487" type="line"/>
		</contour>
	</outline>
</glyph>
<glyph name="yu" format="2">
	<unicode hex="044E"/>
	<advance width="832"/>
	<outline>
		<contour>
			<point x="23" y="0" type="line"/>
			<point x="307" y="0" type="line"/>
			<point x="307" y="51" type="line"/>
			<point x="213" y="71" type="line"/>
			<point x="117" y="71" type="line"/>
			<point x="23" y="51" type="line"/>
		</contour>
		<contour>
			<point x="23" y="436" type="line"/>
			<point x="117" y="416" type="line"/>
			<point x="213" y="416" type="line"/>
			<point x="307" y="436" type="line"/>
			<point x="307" y="487" type="line"/>
			<point x="23" y="487" type="line"/>
		</contour>
		<contour>
			<point x="67" y="0" type="curve"/>
			<point x="263" y="0" type="line"/>
			<point x="261" y="45"/>
			<point x="260" y="148"/>
			<point x="260" y="241" type="curve" smooth="yes"/>
			<point x="260" y="277" type="line" smooth="yes"/>
			<point x="260" y="339"/>
			<point x="261" y="442"/>
			<point x="263" y="487" type="curve"/>
			<point x="67" y="487" type="line"/>
			<point x="69" y="442"/>
			<point x="70" y="339"/>
			<point x="70" y="277" type="curve" smooth="yes"/>
			<point x="70" y="210" type="line" smooth="yes"/>
			<point x="70" y="148"/>
			<point x="69" y="45"/>
		</contour>
		<contour>
			<point x="166" y="231" type="line"/>
			<point x="414" y="231" type="line"/>
			<point x="414" y="288" type="line"/>
			<point x="166" y="288" type="line"/>
		</contour>
		<contour>
			<point x="568" y="-16" type="curve" smooth="yes"/>
			<point x="730" y="-16"/>
			<point x="810" y="88"/>
			<point x="810" y="247" type="curve" smooth="yes"/>
			<point x="810" y="406"/>
			<point x="715" y="503"/>
			<point x="567" y="503" type="curve" smooth="yes"/>
			<point x="421" y="503"/>
			<point x="334" y="403"/>
			<point x="334" y="247" type="curve" smooth="yes"/>
			<point x="334" y="91"/>
			<point x="409" y="-16"/>
		</contour>
		<contour>
			<point x="564" y="39" type="curve" smooth="yes"/>
			<point x="520" y="39"/>
			<point x="504" y="87"/>
			<point x="504" y="244" type="curve" smooth="yes"/>
			<point x="504" y="401"/>
			<point x="520" y="448"/>
			<point x="564" y="448" type="curve" smooth="yes"/>
			<point x="608" y="448"/>
			<point x="630" y="401"/>
			<point x="630" y="244" type="curve" smooth="yes"/>
			<point x="630" y="87"/>
			<point x="608" y="39"/>
		</contour>
	</outline>
	<anchor name="aboveLC" x="374" y="520"/>
</glyph>
<glyph name="dje" format="2">
	<unicode hex="0452"/>
	<advance width="605"/>
	<outline>
		<contour>
			<point x="71" y="0" type="curve"/>
			<point x="267" y="0" type="line"/>
			<point x="265" y="45"/>
			<point x="264" y="148"/>
			<point x="264" y="210" type="curve" smooth="yes"/>
			<point x="264" y="356" type="line"/>
			<point x="261" y="369" type="line"/>
			<point x="261" y="571" type="line"/>
			<point x="265" y="710" type="line"/>
			<point x="248" y="721" type="line"/>
			<point x="20" y="676" type="line"/>
			<point x="20" y="631" type="line"/>
			<point x="74" y="621" type="line"/>
			<point x="74" y="210" type="line" smooth="yes"/>
			<point x="74" y="148"/>
			<point x="73" y="45"/>
		</contour>
		<contour>
			<point x="27" y="0" type="line"/>
			<point x="303" y="0" type="line"/>
			<point x="303" y="51" type="line"/>
			<point x="211" y="71" type="line"/>
			<point x="113" y="71" type="line"/>
			<point x="27" y="51" type="line"/>
		</contour>
		<contour>
			<point x="20" y="518" type="line"/>
			<point x="396" y="518" type="line"/>
			<point x="396" y="581" type="line"/>
			<point x="20" y="581" type="line"/>
		</contour>
		<contour>
			<point x="158" y="-165" type="curve"/>
			<point x="177" y="-201"/>
			<point x="219" y="-232"/>
			<point x="297" y="-232" type="curve" smooth="yes"/>
			<point x="354" y="-232"/>
			<point x="425" y="-218"/>
			<point x="483" y="-160" type="curve" smooth="yes"/>
			<point x="536" y="-107"/>
			<point x="569" y="-7"/>
			<point x="569" y="148" type="curve" smooth="yes"/>
			<point x="569" y="373"/>
			<point x="498" y="457"/>
			<point x="393" y="457" type="curve" smooth="yes"/>
			<point x="301" y="457"/>
			<point x="239" y="399"/>
			<point x="183" y="285" type="curve"/>
			<point x="192" y="269" type="line"/>
			<point x="228" y="319"/>
			<point x="265" y="358"/>
			<point x="302" y="358" type="curve" smooth="yes"/>
			<point x="362" y="358"/>
			<point x="381" y="318"/>
			<point x="381" y="139" type="curve" smooth="yes"/>
			<point x="381" y="45"/>
			<point x="375" y="-80"/>
			<point x="368" y="-131" type="curve" smooth="yes"/>
			<point x="362" y="-177"/>
			<point x="345" y="-201"/>
			<point x="305" y="-220" type="curve"/>
			<point x="358" y="-210" type="line"/>
			<point x="330" y="-151" type="line" smooth="yes"/>
			<point x="310" y="-109"/>
			<point x="278" y="-88"/>
			<point x="243" y="-88" type="curve" smooth="yes"/>
			<point x="203" y="-88"/>
			<point x="161" y="-116"/>
		</contour>
	</outline>
</glyph>
<glyph name="nje" format="1">
	<unicode hex="045A"/>
	<advance width="835"/>
	<outline>
		<contour>
			<point x="23" y="0" type="line"/>
			<point x="307" y="0" type="line"/>
			<point x="307" y="51" type="line"/>
			<point x="213" y="71" type="line"/>
			<point x="117" y="71" type="line"/>
			<point x="23" y="51" type="line"/>
		</contour>
		<contour>
			<point x="23" y="436" type="line"/>
			<point x="117" y="416" type="line"/>
			<point x="213" y="416" type="line"/>
			<point x="307" y="436" type="line"/>
			<point x="307" y="487" type="line"/>
			<point x="23" y="487" type="line"/>
		</contour>
		<contour>
			<point x="67" y="0" type="curve"/>
			<point x="263" y="0" type="line"/>
			<point x="261" y="45"/>
			<point x="260" y="148"/>
			<point x="260" y="210" type="curve" smooth="yes"/>
			<point x="260" y="277" type="line" smooth="yes"/>
			<point x="260" y="339"/>
			<point x="261" y="442"/>
			<point x="263" y="487" type="curve"/>
			<point x="67" y="487" type="line"/>
			<point x="69" y="442"/>
			<point x="70" y="339"/>
			<point x="70" y="277" type="curve" smooth="yes"/>
			<point x="70" y="210" type="line" smooth="yes"/>
			<point x="70" y="148"/>
			<point x="69" y="45"/>
		</contour>
		<contour>
			<point x="165" y="239" type="line"/>
			<point x="475" y="239" type="line"/>
			<point x="475" y="296" type="line"/>
			<point x="165" y="296" type="line"/>
		</contour>
		<contour>
			<point x="333" y="0" type="line"/>
			<point x="475" y="0" type="line"/>
			<point x="475" y="71" type="line"/>
			<point x="427" y="71" type="line"/>
			<point x="333" y="51" type="line"/>
		</contour>
		<contour>
			<point x="333" y="436" type="line"/>
			<point x="427" y="416" type="line"/>
			<point x="523" y="416" type="line"/>
			<point x="617" y="436" type="line"/>
			<point x="617" y="487" type="line"/>
			<point x="333" y="487" type="line"/>
		</contour>
		<contour>
			<point x="377" y="0" type="curve"/>
			<point x="573" y="0" type="line"/>
			<point x="571" y="45"/>
			<point x="570" y="148"/>
			<point x="570" y="210" type="curve" smooth="yes"/>
			<point x="570" y="277" type="line" smooth="yes"/>
			<point x="570" y="339"/>
			<point x="571" y="442"/>
			<point x="573" y="487" type="curve"/>
			<point x="377" y="487" type="line"/>
			<point x="379" y="442"/>
			<point x="380" y="339"/>
			<point x="380" y="277" type="curve" smooth="yes"/>
			<point x="380" y="210" type="line" smooth="yes"/>
			<point x="380" y="148"/>
			<point x="379" y="45"/>
		</contour>
		<contour>
			<point x="475" y="0" type="line"/>
			<point x="582" y="0" type="line" smooth="yes"/>
			<point x="784" y="0"/>
			<point x="823" y="66"/>
			<point x="823" y="156" type="curve" smooth="yes"/>
			<point x="823" y="241"/>
			<point x="770" y="304"/>
			<point x="631" y="304" type="curve" smooth="yes"/>
			<point x="586" y="304"/>
			<point x="524" y="296"/>
			<point x="475" y="286" type="curve"/>
			<point x="475" y="242" type="line"/>
			<point x="508" y="250"/>
			<point x="541" y="253"/>
			<point x="576" y="253" type="curve" smooth="yes"/>
			<point x="625" y="253"/>
			<point x="653" y="229"/>
			<point x="653" y="154" type="curve" smooth="yes"/>
			<point x="653" y="81"/>
			<point x="619" y="52"/>
			<point x="577" y="52" type="curve" smooth="yes"/>
			<point x="475" y="52" type="line"/>
		</contour>
	</outline>
</glyph>
<glyph name="Esdescender" format="1">
	<unicode hex="04AA"/>
	<advance width="618"/>
	<outline>
		<contour>
			<point x="213" y="-211" type="line"/>
			<point x="238" y="-222"/>
			<point x="268" y="-227"/>
			<point x="309" y="-227" type="curve" smooth="yes"/>
			<point x="392" y="-227"/>
			<point x="438" y="-188"/>
			<point x="438" y="-137" type="curve" smooth="yes"/>
			<point x="438" y="-89"/>
			<point x="383" y="-30"/>
			<point x="325" y="0" type="curve"/>
			<point x="286" y="0" type="line"/>
			<point x="322" y="-50"/>
			<point x="334" y="-76"/>
			<point x="334" y="-115" type="curve" smooth="yes"/>
			<point x="334" y="-156"/>
			<point x="306" y="-170"/>
			<point x="277" y="-170" type="curve" smooth="yes"/>
			<point x="256" y="-170"/>
			<point x="241" y="-167"/>
			<point x="224" y="-161" type="curve"/>
		</contour>
		<component base="Es"/>
	</outline>
</glyph>
<glyph name="esdescender" format="1">
	<unicode hex="04AB"/>
	<advance width="523"/>
	<outline>
		<contour>
			<point x="165" y="-211" type="line"/>
			<point x="190" y="-222"/>
			<point x="220" y="-227"/>
			<point x="261" y="-227" type="curve" smooth="yes"/>
			<point x="344" y="-227"/>
			<point x="390" y="-188"/>
			<point x="390" y="-137" type="curve" smooth="yes"/>
			<point x="390" y="-89"/>
			<point x="335" y="-30"/>
			<point x="277" y="0" type="curve"/>
			<point x="238" y="0" type="line"/>
			<point x="274" y="-50"/>
			<point x="286" y="-76"/>
			<point x="286" y="-115" type="curve" smooth="yes"/>
			<point x="286" y="-156"/>
			<point x="258" y="-170"/>
			<point x="229" y="-170" type="curve" smooth="yes"/>
			<point x="208" y="-170"/>
			<point x="193" y="-167"/>
			<point x="176" y="-161" type="curve"/>
		</contour>
		<component base="es"/>
	</outline>
</glyph>
<glyph name="ustraightstroke" format="1">
	<unicode hex="04B1"/>
	<advance width="536"/>
	<outline>
		<contour>
			<point x="49" y="0" type="line"/>
			<point x="469" y="0" type="line"/>
			<point x="469" y="57" type="line"/>
			<point x="49" y="57" type="line"/>
		</contour>
		<component base="ustraight"/>
		<contour>
			<point name="aboveLC" x="298" y="520" type="move"/>
		</contour>
	</outline>
</glyph>
<glyph name="Obarcyr" format="1">
	<unicode hex="04E8"/>
	<advance width="700"/>
	<outline>
		<component base="Fita"/>
		<contour>
			<point name="aboveUC" x="350" y="682" type="move"/>
		</contour>
	</outline>
</glyph>
<glyph name="obarcyr" format="1">
	<unicode hex="04E9"/>
	<advance width="572"/>
	<outline>
		<component base="fita"/>
		<contour>
			<point name="aboveLC" x="286" y="520" type="move"/>
		</contour>
	</outline>
</glyph>
<glyph name="a.sups" format="2">
	<unicode hex="1D43"/>
	<advance width="357"/>
	<outline>
		<contour>
			<point x="308" y="463" type="curve" smooth="yes"/>
			<point x="308" y="609" type="line" smooth="yes"/>
			<point x="308" y="696"/>
			<point x="274" y="731"/>
			<point x="187" y="731" type="curve" smooth="yes"/>
			<point x="88" y="731"/>
			<point x="33" y="694"/>
			<point x="31" y="640" type="curve"/>
			<point x="36" y="619"/>
			<point x="53" y="608"/>
			<point x="77" y="608" type="curve" smooth="yes"/>
			<point x="103" y="608"/>
			<point x="126" y="625"/>
			<point x="128" y="667" type="curve" smooth="yes"/>
			<point x="131" y="713" type="line"/>
			<point x="83" y="688" type="line"/>
			<point x="113" y="696"/>
			<point x="130" y="698"/>
			<point x="146" y="698" type="curve" smooth="yes"/>
			<point x="189" y="698"/>
			<point x="200" y="681"/>
			<point x="200" y="623" type="curve" smooth="yes"/>
			<point x="200" y="464" type="line" smooth="yes"/>
			<point x="204" y="422"/>
			<point x="229" y="397"/>
			<point x="279" y="397" type="curve" smooth="yes"/>
			<point x="320" y="397"/>
			<point x="344" y="410"/>
			<point x="360" y="445" type="curve"/>
			<point x="342" y="457" type="line"/>
			<point x="334" y="446"/>
			<point x="328" y="443"/>
			<point x="322" y="443" type="curve" smooth="yes"/>
			<point x="313" y="443"/>
			<point x="308" y="450"/>
		</contour>
		<contour>
			<point x="122" y="496" type="curve" smooth="yes"/>
			<point x="122" y="526"/>
			<point x="143" y="548"/>
			<point x="171" y="561" type="curve" smooth="yes"/>
			<point x="191" y="570"/>
			<point x="226" y="579"/>
			<point x="258" y="587" type="curve"/>
			<point x="258" y="614" type="line"/>
			<point x="227" y="607"/>
			<point x="179" y="595"/>
			<point x="151" y="587" type="curve" smooth="yes"/>
			<point x="47" y="558"/>
			<point x="20" y="525"/>
			<point x="20" y="480" type="curve" smooth="yes"/>
			<point x="20" y="426"/>
			<point x="55" y="396"/>
			<point x="108" y="396" type="curve" smooth="yes"/>
			<point x="156" y="396"/>
			<point x="175" y="418"/>
			<point x="208" y="450" type="curve" smooth="yes"/>
			<point x="238" y="479" type="line"/>
			<point x="231" y="489" type="line"/>
			<point x="204" y="470" type="line" smooth="yes"/>
			<point x="183" y="455"/>
			<point x="173" y="448"/>
			<point x="161" y="448" type="curve" smooth="yes"/>
			<point x="140" y="448"/>
			<point x="122" y="463"/>
		</contour>
	</outline>
</glyph>
<glyph name="o.sups" format="2">
	<unicode hex="1D52"/>
	<advance width="381"/>
	<outline>
		<contour>
			<point x="190" y="697" type="curve" smooth="yes"/>
			<point x="227" y="697"/>
			<point x="246" y="656"/>
			<point x="246" y="564" type="curve" smooth="yes"/>
			<point x="246" y="471"/>
			<point x="227" y="430"/>
			<point x="190" y="430" type="curve" smooth="yes"/>
			<point x="153" y="430"/>
			<point x="135" y="471"/>
			<point x="135" y="564" type="curve" smooth="yes"/>
			<point x="135" y="656"/>
			<point x="153" y="697"/>
		</contour>
		<contour>
			<point x="190" y="731" type="curve" smooth="yes"/>
			<point x="92" y="731"/>
			<point x="17" y="666"/>
			<point x="17" y="565" type="curve" smooth="yes"/>
			<point x="17" y="465"/>
			<point x="83" y="396"/>
			<point x="190" y="396" type="curve" smooth="yes"/>
			<point x="298" y="396"/>
			<point x="364" y="463"/>
			<point x="364" y="565" type="curve" smooth="yes"/>
			<point x="364" y="667"/>
			<point x="289" y="731"/>
		</contour>
	</outline>
</glyph>
<glyph name="figuredash" format="2">
	<unicode hex="2012"/>
	<advance width="560"/>
	<outline>
		<contour>
			<point x="40" y="259" type="line"/>
			<point x="520" y="259" type="line"/>
			<point x="520" y="359" type="line"/>
			<point x="40" y="359" type="line"/>
		</contour>
	</outline>
</glyph>
<glyph name="endash" format="2">
	<unicode hex="2013"/>
	<advance width="550"/>
	<outline>
		<contour>
			<point x="40" y="205" type="line"/>
			<point x="510" y="205" type="line"/>
			<point x="510" y="305" type="line"/>
			<point x="40" y="305" type="line"/>
		</contour>
	</outline>
</glyph>
<glyph name="i.sups" format="2">
	<unicode hex="2071"/>
	<advance width="208"/>
	<outline>
		<contour>
			<point x="109" y="782" type="curve" smooth="yes"/>
			<point x="142" y="782"/>
			<point x="169" y="805"/>
			<point x="169" y="835" type="curve" smooth="yes"/>
			<point x="169" y="866"/>
			<point x="142" y="888"/>
			<point x="109" y="888" type="curve" smooth="yes"/>
			<point x="77" y="888"/>
			<point x="48" y="866"/>
			<point x="48" y="835" type="curve" smooth="yes"/>
			<point x="48" y="805"/>
			<point x="77" y="782"/>
		</contour>
		<contour>
			<point x="165" y="406" type="line"/>
			<point x="165" y="724" type="line"/>
			<point x="154" y="731" type="line"/>
			<point x="12" y="688" type="line"/>
			<point x="12" y="663" type="line"/>
			<point x="54" y="657" type="line"/>
			<point x="54" y="406" type="line"/>
		</contour>
		<contour>
			<point x="134" y="449" type="line"/>
			<point x="80" y="449" type="line"/>
			<point x="19" y="436" type="line"/>
			<point x="19" y="406" type="line"/>
			<point x="198" y="406" type="line"/>
			<point x="198" y="436" type="line"/>
		</contour>
	</outline>
</glyph>
<glyph name="six.sups" format="2">
	<unicode hex="2076"/>
	<advance width="374"/>
	<outline>
		<contour>
			<point x="198" y="427" type="curve" smooth="yes"/>
			<point x="171" y="427"/>
			<point x="149" y="464"/>
			<point x="149" y="586" type="curve" smooth="yes"/>
			<point x="149" y="667"/>
			<point x="211" y="742"/>
			<point x="322" y="769" type="curve"/>
			<point x="318" y="803" type="line"/>
			<point x="150" y="791"/>
			<point x="27" y="689"/>
			<point x="27" y="558" type="curve" smooth="yes"/>
			<point x="27" y="452"/>
			<point x="95" y="394"/>
			<point x="198" y="394" type="curve" smooth="yes"/>
			<point x="281" y="394"/>
			<point x="353" y="439"/>
			<point x="353" y="528" type="curve" smooth="yes"/>
			<point x="353" y="604"/>
			<point x="306" y="645"/>
			<point x="235" y="645" type="curve" smooth="yes"/>
			<point x="180" y="645"/>
			<point x="144" y="624"/>
			<point x="121" y="566" type="curve"/>
			<point x="136" y="560" type="line"/>
			<point x="150" y="591"/>
			<point x="171" y="603"/>
			<point x="189" y="603" type="curve" smooth="yes"/>
			<point x="216" y="603"/>
			<point x="235" y="572"/>
			<point x="235" y="514" type="curve" smooth="yes"/>
			<point x="235" y="450"/>
			<point x="219" y="427"/>
		</contour>
	</outline>
</glyph>
<glyph name="parenleft.sups" format="2">
	<unicode hex="207D"/>
	<advance width="292"/>
	<outline>
		<contour>
			<point x="153" y="578" type="curve" smooth="yes"/>
			<point x="153" y="664"/>
			<point x="176" y="726"/>
			<point x="250" y="821" type="curve"/>
			<point x="217" y="849" type="line"/>
			<point x="115" y="777"/>
			<point x="57" y="683"/>
			<point x="57" y="578" type="curve" smooth="yes"/>
			<point x="57" y="474"/>
			<point x="115" y="380"/>
			<point x="217" y="308" type="curve"/>
			<point x="250" y="336" type="line"/>
			<point x="176" y="431"/>
			<point x="153" y="492"/>
		</contour>
	</outline>
</glyph>
<glyph name="n.sups" format="2">
	<unicode hex="207F"/>
	<advance width="413"/>
	<outline>
		<contour>
			<point x="55" y="406" type="line"/>
			<point x="166" y="406" type="line"/>
			<point x="166" y="651" type="line"/>
			<point x="166" y="652" type="line"/>
			<point x="160" y="724" type="line"/>
			<point x="149" y="731" type="line"/>
			<point x="13" y="688" type="line"/>
			<point x="13" y="663" type="line"/>
			<point x="55" y="657" type="line"/>
		</contour>
		<contour>
			<point x="256" y="406" type="line"/>
			<point x="367" y="406" type="line"/>
			<point x="367" y="619" type="line" smooth="yes"/>
			<point x="367" y="694"/>
			<point x="328" y="731"/>
			<point x="270" y="731" type="curve" smooth="yes"/>
			<point x="226" y="731"/>
			<point x="192" y="713"/>
			<point x="151" y="663" type="curve"/>
			<point x="117" y="663" type="line"/>
			<point x="139" y="622" type="line"/>
			<point x="165" y="652"/>
			<point x="197" y="669"/>
			<point x="222" y="669" type="curve" smooth="yes"/>
			<point x="248" y="669"/>
			<point x="256" y="655"/>
			<point x="256" y="611" type="curve" smooth="yes"/>
		</contour>
		<contour>
			<point x="19" y="406" type="line"/>
			<point x="197" y="406" type="line"/>
			<point x="197" y="436" type="line"/>
			<point x="134" y="449" type="line"/>
			<point x="80" y="449" type="line"/>
			<point x="19" y="436" type="line"/>
		</contour>
		<contour>
			<point x="222" y="406" type="line"/>
			<point x="400" y="406" type="line"/>
			<point x="400" y="436" type="line"/>
			<point x="335" y="449" type="line"/>
			<point x="281" y="449" type="line"/>
			<point x="222" y="436" type="line"/>
		</contour>
	</outline>
</glyph>
<glyph name="Euro" format="2">
	<unicode hex="20AC"/>
	<advance width="560"/>
	<outline>
		<contour>
			<point x="351" y="-16" type="curve" smooth="yes"/>
			<point x="463" y="-16"/>
			<point x="546" y="36"/>
			<point x="546" y="120" type="curve"/>
			<point x="541" y="161"/>
			<point x="512" y="176"/>
			<point x="486" y="176" type="curve" smooth="yes"/>
			<point x="447" y="176"/>
			<point x="410" y="162"/>
			<point x="399" y="87" type="curve" smooth="yes"/>
			<point x="389" y="20" type="line"/>
			<point x="484" y="67" type="line"/>
			<point x="439" y="46"/>
			<point x="418" y="39"/>
			<point x="382" y="39" type="curve" smooth="yes"/>
			<point x="302" y="39"/>
			<point x="233" y="130"/>
			<point x="233" y="314" type="curve" smooth="yes"/>
			<point x="233" y="502"/>
			<point x="295" y="585"/>
			<point x="359" y="585" type="curve" smooth="yes"/>
			<point x="401" y="585"/>
			<point x="428" y="581"/>
			<point x="480" y="557" type="curve"/>
			<point x="385" y="604" type="line"/>
			<point x="395" y="537" type="line" smooth="yes"/>
			<point x="406" y="462"/>
			<point x="443" y="448"/>
			<point x="482" y="448" type="curve" smooth="yes"/>
			<point x="508" y="448"/>
			<point x="537" y="463"/>
			<point x="542" y="504" type="curve"/>
			<point x="542" y="588"/>
			<point x="462" y="640"/>
			<point x="357" y="640" type="curve" smooth="yes"/>
			<point x="199" y="640"/>
			<point x="66" y="550"/>
			<point x="66" y="314" type="curve" smooth="yes"/>
			<point x="66" y="78"/>
			<point x="184" y="-16"/>
		</contour>
		<contour>
			<point x="10" y="357" type="line"/>
			<point x="425" y="357" type="line"/>
			<point x="425" y="417" type="line"/>
			<point x="10" y="417" type="line"/>
		</contour>
		<contour>
			<point x="10" y="217" type="line"/>
			<point x="425" y="217" type="line"/>
			<point x="425" y="277" type="line"/>
			<point x="10" y="277" type="line"/>
		</contour>
	</outline>
</glyph>
<glyph name="tugrik" format="2">
	<unicode hex="20AE"/>
	<advance width="560"/>
	<outline>
		<contour>
			<point x="15" y="443" type="line"/>
			<point x="95" y="443" type="line"/>
			<point x="128" y="624" type="line"/>
			<point x="48" y="567" type="line"/>
			<point x="512" y="567" type="line"/>
			<point x="433" y="624" type="line"/>
			<point x="466" y="443" type="line"/>
			<point x="545" y="443" type="line"/>
			<point x="544" y="624" type="line"/>
			<point x="16" y="624" type="line"/>
		</contour>
		<contour>
			<point x="102" y="97" type="line"/>
			<point x="280" y="168" type="line"/>
			<point x="280" y="231" type="line"/>
			<point x="102" y="160" type="line"/>
		</contour>
		<contour>
			<point x="102" y="233" type="line"/>
			<point x="280" y="304" type="line"/>
			<point x="280" y="367" type="line"/>
			<point x="102" y="296" type="line"/>
		</contour>
		<contour>
			<point x="108" y="0" type="line"/>
			<point x="453" y="0" type="line"/>
			<point x="453" y="57" type="line"/>
			<point x="304" y="71" type="line"/>
			<point x="253" y="71" type="line"/>
			<point x="108" y="57" type="line"/>
		</contour>
		<contour>
			<point x="182" y="0" type="curve"/>
			<point x="378" y="0" type="line"/>
			<point x="375" y="95"/>
			<point x="375" y="190"/>
			<point x="375" y="240" type="curve" smooth="yes"/>
			<point x="375" y="371" type="line" smooth="yes"/>
			<point x="375" y="428"/>
			<point x="375" y="527"/>
			<point x="378" y="624" type="curve"/>
			<point x="182" y="624" type="line"/>
			<point x="185" y="525"/>
			<point x="185" y="427"/>
			<point x="185" y="307" type="curve" smooth="yes"/>
			<point x="185" y="168" type="line" smooth="yes"/>
			<point x="185" y="131"/>
			<point x="185" y="92"/>
		</contour>
		<contour>
			<point x="280" y="158" type="line"/>
			<point x="458" y="228" type="line"/>
			<point x="458" y="291" type="line"/>
			<point x="280" y="221" type="line"/>
		</contour>
		<contour>
			<point x="280" y="294" type="line"/>
			<point x="458" y="364" type="line"/>
			<point x="458" y="427" type="line"/>
			<point x="280" y="357" type="line"/>
		</contour>
	</outline>
</glyph>
<glyph name="tenge" format="1">
	<unicode hex="20B8"/>
	<advance width="560"/>
	<outline>
		<contour>
			<point x="15" y="327" type="line"/>
			<point x="105" y="327" type="line"/>
			<point x="128" y="508" type="line"/>
			<point x="48" y="451" type="line"/>
			<point x="512" y="451" type="line"/>
			<point x="433" y="508" type="line"/>
			<point x="456" y="327" type="line"/>
			<point x="545" y="327" type="line"/>
			<point x="544" y="508" type="line"/>
			<point x="16" y="508" type="line"/>
		</contour>
		<contour>
			<point x="16" y="564" type="line"/>
			<point x="545" y="564" type="line"/>
			<point x="545" y="624" type="line"/>
			<point x="16" y="624" type="line"/>
		</contour>
		<contour>
			<point x="108" y="0" type="line"/>
			<point x="453" y="0" type="line"/>
			<point x="453" y="57" type="line"/>
			<point x="304" y="71" type="line"/>
			<point x="253" y="71" type="line"/>
			<point x="108" y="57" type="line"/>
		</contour>
		<contour>
			<point x="182" y="0" type="curve"/>
			<point x="378" y="0" type="line"/>
			<point x="375" y="79"/>
			<point x="375" y="158"/>
			<point x="375" y="238" type="curve" smooth="yes"/>
			<point x="375" y="272" type="line" smooth="yes"/>
			<point x="375" y="352"/>
			<point x="375" y="431"/>
			<point x="378" y="508" type="curve"/>
			<point x="182" y="508" type="line"/>
			<point x="185" y="429"/>
			<point x="185" y="351"/>
			<point x="185" y="272" type="curve" smooth="yes"/>
			<point x="185" y="237" type="line" smooth="yes"/>
			<point x="185" y="157"/>
			<point x="185" y="77"/>
		</contour>
	</outline>
</glyph>
<glyph name="rupeeindian" format="2">
	<unicode hex="20B9"/>
	<advance width="560"/>
	<outline>
		<contour>
			<point x="59" y="435" type="line"/>
			<point x="481" y="435" type="line"/>
			<point x="481" y="495" type="line"/>
			<point x="59" y="495" type="line"/>
		</contour>
		<contour>
			<point x="59" y="311" type="line"/>
			<point x="59" y="251" type="line"/>
			<point x="126" y="251" type="line" smooth="yes"/>
			<point x="181" y="251"/>
			<point x="204" y="223"/>
			<point x="212" y="170" type="curve" smooth="yes"/>
			<point x="223" y="93" type="line" smooth="yes"/>
			<point x="236" y="2"/>
			<point x="304" y="-16"/>
			<point x="371" y="-16" type="curve" smooth="yes"/>
			<point x="414" y="-16"/>
			<point x="449" y="-9"/>
			<point x="481" y="0" type="curve"/>
			<point x="481" y="57" type="line"/>
			<point x="342" y="75" type="line"/>
			<point x="420" y="23" type="line"/>
			<point x="399" y="167" type="line" smooth="yes"/>
			<point x="391" y="224"/>
			<point x="353" y="281"/>
			<point x="241" y="294" type="curve"/>
			<point x="251" y="280" type="line"/>
			<point x="365" y="308"/>
			<point x="402" y="380"/>
			<point x="402" y="441" type="curve" smooth="yes"/>
			<point x="402" y="504"/>
			<point x="385" y="542"/>
			<point x="334" y="578" type="curve"/>
			<point x="334" y="565" type="line"/>
			<point x="481" y="565" type="line"/>
			<point x="481" y="625" type="line"/>
			<point x="59" y="625" type="line"/>
			<point x="59" y="565" type="line"/>
			<point x="116" y="565" type="line" smooth="yes"/>
			<point x="196" y="565"/>
			<point x="234" y="525"/>
			<point x="234" y="441" type="curve" smooth="yes"/>
			<point x="234" y="381"/>
			<point x="205" y="311"/>
			<point x="104" y="311" type="curve" smooth="yes"/>
		</contour>
	</outline>
</glyph>
<glyph name="litre" format="2">
	<unicode hex="2113"/>
	<advance width="577"/>
	<outline>
		<contour>
			<point x="347" y="-16" type="curve" smooth="yes"/>
			<point x="458" y="-16"/>
			<point x="510" y="30"/>
			<point x="562" y="88" type="curve"/>
			<point x="536" y="126" type="line"/>
			<point x="494" y="92"/>
			<point x="453" y="73"/>
			<point x="406" y="73" type="curve" smooth="yes"/>
			<point x="318" y="73"/>
			<point x="246" y="164"/>
			<point x="246" y="354" type="curve" smooth="yes"/>
			<point x="246" y="606"/>
			<point x="278" y="672"/>
			<point x="313" y="672" type="curve" smooth="yes"/>
			<point x="340" y="672"/>
			<point x="361" y="650"/>
			<point x="361" y="556" type="curve" smooth="yes"/>
			<point x="361" y="449"/>
			<point x="343" y="347"/>
			<point x="248" y="215" type="curve"/>
			<point x="234" y="203" type="line"/>
			<point x="62" y="46" type="line"/>
			<point x="88" y="8" type="line"/>
			<point x="333" y="200"/>
			<point x="496" y="349"/>
			<point x="496" y="545" type="curve" smooth="yes"/>
			<point x="496" y="654"/>
			<point x="433" y="731"/>
			<point x="324" y="731" type="curve" smooth="yes"/>
			<point x="187" y="731"/>
			<point x="56" y="610"/>
			<point x="56" y="365" type="curve" smooth="yes"/>
			<point x="56" y="90"/>
			<point x="209" y="-16"/>
		</contour>
	</outline>
</glyph>
<glyph name="arrowright" format="2">
	<unicode hex="2192"/>
	<advance width="660"/>
	<outline>
		<contour>
			<point x="324" y="-39" type="line"/>
			<point x="650" y="244" type="line"/>
			<point x="650" y="326" type="line"/>
			<point x="324" y="609" type="line"/>
			<point x="284" y="569" type="line"/>
			<point x="514" y="318" type="line"/>
			<point x="170" y="345" type="line"/>
			<point x="10" y="345" type="line"/>
			<point x="10" y="225" type="line"/>
			<point x="170" y="225" type="line"/>
			<point x="514" y="252" type="line"/>
			<point x="284" y="1" type="line"/>
		</contour>
	</outline>
</glyph>
<glyph name="integral" format="1">
	<unicode hex="222B"/>
	<advance width="383"/>
	<outline>
		<contour>
			<point x="134" y="-14" type="curve" smooth="yes"/>
			<point x="134" y="-89"/>
			<point x="122" y="-183"/>
			<point x="29" y="-213" type="curve"/>
			<point x="102" y="-194" type="line"/>
			<point x="60" y="-133" type="line" smooth="yes"/>
			<point x="36" y="-97"/>
			<point x="13" y="-86"/>
			<point x="-21" y="-86" type="curve" smooth="yes"/>
			<point x="-59" y="-86"/>
			<point x="-84" y="-116"/>
			<point x="-85" y="-167" type="curve"/>
			<point x="-69" y="-204"/>
			<point x="-27" y="-232"/>
			<point x="53" y="-232" type="curve" smooth="yes"/>
			<point x="182" y="-232"/>
			<point x="288" y="-132"/>
			<point x="288" y="67" type="curve" smooth="yes"/>
			<point x="288" y="179"/>
			<point x="250" y="431"/>
			<point x="250" y="541" type="curve" smooth="yes"/>
			<point x="250" y="616"/>
			<point x="263" y="710"/>
			<point x="355" y="740" type="curve"/>
			<point x="282" y="721" type="line"/>
			<point x="324" y="660" type="line" smooth="yes"/>
			<point x="349" y="624"/>
			<point x="372" y="613"/>
			<point x="405" y="613" type="curve" smooth="yes"/>
			<point x="444" y="613"/>
			<point x="469" y="643"/>
			<point x="469" y="694" type="curve"/>
			<point x="453" y="731"/>
			<point x="414" y="759"/>
			<point x="331" y="759" type="curve" smooth="yes"/>
			<point x="203" y="759"/>
			<point x="95" y="659"/>
			<point x="95" y="460" type="curve" smooth="yes"/>
			<point x="95" y="348"/>
			<point x="134" y="119"/>
		</contour>
	</outline>
</glyph>
<glyph name="lessequal" format="2">
	<unicode hex="2264"/>
	<advance width="550"/>
	<outline>
		<contour>
			<point x="520" y="0" type="line"/>
			<point x="520" y="100" type="line"/>
			<point x="30" y="100" type="line"/>
			<point x="30" y="0" type="line"/>
		</contour>
		<contour>
			<point x="40" y="312" type="line"/>
			<point x="461" y="122" type="line"/>
			<point x="500" y="214" type="line"/>
			<point x="95" y="390" type="line"/>
			<point x="95" y="311" type="line"/>
			<point x="500" y="487" type="line"/>
			<point x="461" y="579" type="line"/>
			<point x="40" y="389" type="line"/>
		</contour>
	</outline>
</glyph>
<glyph name="trianglewhiteup" format="2">
	<unicode hex="25B3"/>
	<advance width="620"/>
	<outline>
		<contour>
			<point x="5" y="47" type="line"/>
			<point x="29" y="7" type="line"/>
			<point x="591" y="7" type="line"/>
			<point x="615" y="47" type="line"/>
			<point x="334" y="534" type="line"/>
			<point x="285" y="534" type="line"/>
		</contour>
		<contour>
			<point x="311" y="379" type="line"/>
			<point x="465" y="105" type="line"/>
			<point x="155" y="105" type="line"/>
		</contour>
	</outline>
</glyph>
<glyph name="fisheye" format="2">
	<unicode hex="25C9"/>
	<advance width="500"/>
	<outline>
		<contour>
			<point x="250" y="196" type="curve" smooth="yes"/>
			<point x="326" y="196"/>
			<point x="376" y="247"/>
			<point x="376" y="320" type="curve" smooth="yes"/>
			<point x="376" y="393"/>
			<point x="322" y="444"/>
			<point x="250" y="444" type="curve" smooth="yes"/>
			<point x="178" y="444"/>
			<point x="124" y="393"/>
			<point x="124" y="320" type="curve" smooth="yes"/>
			<point x="124" y="247"/>
			<point x="178" y="196"/>
		</contour>
		<contour>
			<point x="250" y="145" type="curve" smooth="yes"/>
			<point x="148" y="145"/>
			<point x="76" y="217"/>
			<point x="76" y="320" type="curve" smooth="yes"/>
			<point x="76" y="423"/>
			<point x="148" y="495"/>
			<point x="250" y="495" type="curve" smooth="yes"/>
			<point x="350" y="495"/>
			<point x="424" y="423"/>
			<point x="424" y="320" type="curve" smooth="yes"/>
			<point x="424" y="217"/>
			<point x="352" y="145"/>
		</contour>
		<contour>
			<point x="250" y="100" type="curve" smooth="yes"/>
			<point x="380" y="100"/>
			<point x="472" y="194"/>
			<point x="472" y="320" type="curve" smooth="yes"/>
			<point x="472" y="447"/>
			<point x="380" y="540"/>
			<point x="250" y="540" type="curve" smooth="yes"/>
			<point x="120" y="540"/>
			<point x="28" y="447"/>
			<point x="28" y="320" type="curve" smooth="yes"/>
			<point x="28" y="194"/>
			<point x="120" y="100"/>
		</contour>
	</outline>
</glyph>
<glyph name="f_f_i" format="2">
	<unicode hex="FB03"/>
	<advance width="954"/>
	<outline>
		<contour>
			<point x="71" y="0" type="curve"/>
			<point x="267" y="0" type="line"/>
			<point x="265" y="70"/>
			<point x="264" y="140"/>
			<point x="264" y="210" type="curve" smooth="yes"/>
			<point x="264" y="431" type="line"/>
			<point x="256" y="566"/>
			<point x="261" y="633"/>
			<point x="305" y="677" type="curve" smooth="yes"/>
			<point x="320" y="692"/>
			<point x="332" y="699"/>
			<point x="361" y="707" type="curve"/>
			<point x="281" y="707" type="line"/>
			<point x="300" y="662" type="line" smooth="yes"/>
			<point x="324" y="608"/>
			<point x="354" y="585"/>
			<point x="400" y="585" type="curve" smooth="yes"/>
			<point x="445" y="585"/>
			<point x="462" y="615"/>
			<point x="462" y="656" type="curve"/>
			<point x="450" y="713"/>
			<point x="396" y="731"/>
			<point x="340" y="731" type="curve" smooth="yes"/>
			<point x="265" y="731"/>
			<point x="198" y="696"/>
			<point x="159" y="657" type="curve" smooth="yes"/>
			<point x="116" y="614"/>
			<point x="83" y="565"/>
			<point x="74" y="459" type="curve"/>
			<point x="138" y="493" type="line"/>
			<point x="17" y="478" type="line"/>
			<point x="17" y="412" type="line"/>
			<point x="74" y="412" type="line"/>
			<point x="74" y="210" type="line" smooth="yes"/>
			<point x="74" y="140"/>
			<point x="73" y="70"/>
		</contour>
		<contour>
			<point x="27" y="0" type="line"/>
			<point x="322" y="0" type="line"/>
			<point x="322" y="51" type="line"/>
			<point x="254" y="71" type="line"/>
			<point x="120" y="71" type="line"/>
			<point x="27" y="51" type="line"/>
		</contour>
		<contour>
			<point x="170" y="412" type="line"/>
			<point x="490" y="412" type="line"/>
			<point x="490" y="487" type="line"/>
			<point x="170" y="487" type="line"/>
		</contour>
		<component base="f_i" xOffset="320"/>
	</outline>
</glyph>
<glyph name="A.sc" format="2">
	<advance width="636"/>
	<outline>
		<contour>
			<point x="11" y="0" type="line"/>
			<point x="208" y="0" type="line"/>
			<point x="208" y="55" type="line"/>
			<point x="127" y="67" type="line"/>
			<point x="112" y="67" type="line"/>
			<point x="11" y="55" type="line"/>
		</contour>
		<contour>
			<point x="159" y="145" type="line"/>
			<point x="446" y="145" type="line"/>
			<point x="419" y="204" type="line"/>
			<point x="177" y="204" type="line"/>
		</contour>
		<contour>
			<point x="320" y="0" type="line"/>
			<point x="615" y="0" type="line"/>
			<point x="615" y="51" type="line"/>
			<point x="496" y="64" type="line"/>
			<point x="416" y="64" type="line"/>
			<point x="320" y="51" type="line"/>
		</contour>
		<contour>
			<point x="62" y="0" type="line"/>
			<point x="124" y="0" type="line"/>
			<point x="269" y="391" type="line"/>
			<point x="406" y="0" type="line"/>
			<point x="587" y="0" type="line"/>
			<point x="382" y="536" type="line"/>
			<point x="273" y="536" type="line"/>
		</contour>
	</outline>
	<anchor name="aboveUC" x="316" y="560"/>
	<anchor name="ogonek" x="523" y="0"/>
	<anchor name="belowLC" x="280" y="-18"/>
</glyph>
<glyph name="D.sups" format="2">
	<advance width="476"/>
	<outline>
		<contour>
			<point x="69" y="406" type="line"/>
			<point x="199" y="406" type="line"/>
			<point x="199" y="824" type="line"/>
			<point x="69" y="824" type="line"/>
		</contour>
		<contour>
			<point x="123" y="777" type="line"/>
			<point x="134" y="777" type="line"/>
			<point x="134" y="824" type="line"/>
			<point x="24" y="824" type="line"/>
			<point x="24" y="787" type="line"/>
		</contour>
		<contour>
			<point x="123" y="453" type="line"/>
			<point x="24" y="443" type="line"/>
			<point x="24" y="406" type="line"/>
			<point x="134" y="406" type="line"/>
			<point x="134" y="453" type="line"/>
		</contour>
		<contour>
			<point x="134" y="406" type="line"/>
			<point x="210" y="406" type="line" smooth="yes"/>
			<point x="360" y="406"/>
			<point x="452" y="485"/>
			<point x="452" y="617" type="curve" smooth="yes"/>
			<point x="452" y="743"/>
			<point x="367" y="824"/>
			<point x="222" y="824" type="curve" smooth="yes"/>
			<point x="134" y="824" type="line"/>
			<point x="134" y="785" type="line"/>
			<point x="212" y="785" type="line" smooth="yes"/>
			<point x="280" y="785"/>
			<point x="324" y="726"/>
			<point x="324" y="616" type="curve" smooth="yes"/>
			<point x="324" y="506"/>
			<point x="280" y="445"/>
			<point x="212" y="445" type="curve" smooth="yes"/>
			<point x="134" y="445" type="line"/>
		</contour>
	</outline>
</glyph>
<glyph name="El.sc" format="2">
	<advance width="672"/>
	<outline>
		<contour>
			<point x="5" y="72" type="curve"/>
			<point x="5" y="12"/>
			<point x="40" y="-13"/>
			<point x="100" y="-13" type="curve" smooth="yes"/>
			<point x="170" y="-13"/>
			<point x="214" y="40"/>
			<point x="247" y="156" type="curve" smooth="yes"/>
			<point x="283" y="284"/>
			<point x="289" y="384"/>
			<point x="301" y="536" type="curve"/>
			<point x="234" y="536" type="line"/>
			<point x="225" y="384"/>
			<point x="217" y="300"/>
			<point x="174" y="170" type="curve" smooth="yes"/>
			<point x="165" y="142"/>
			<point x="154" y="120"/>
			<point x="140" y="95" type="curve"/>
			<point x="140" y="85" type="line"/>
			<point x="168" y="85" type="line"/>
			<point x="168" y="95" type="line"/>
			<point x="141" y="116"/>
			<point x="126" y="124"/>
			<point x="92" y="124" type="curve" smooth="yes"/>
			<point x="45" y="124"/>
			<point x="17" y="98"/>
		</contour>
		<contour>
			<point x="388" y="0" type="curve"/>
			<point x="572" y="0" type="line"/>
			<point x="570" y="85"/>
			<point x="570" y="170"/>
			<point x="570" y="254" type="curve" smooth="yes"/>
			<point x="570" y="281" type="line" smooth="yes"/>
			<point x="570" y="368"/>
			<point x="570" y="453"/>
			<point x="572" y="536" type="curve"/>
			<point x="388" y="536" type="line"/>
			<point x="390" y="451"/>
			<point x="390" y="366"/>
			<point x="390" y="281" type="curve" smooth="yes"/>
			<point x="390" y="256" type="line" smooth="yes"/>
			<point x="390" y="168"/>
			<point x="390" y="83"/>
		</contour>
		<contour>
			<point x="325" y="0" type="line"/>
			<point x="633" y="0" type="line"/>
			<point x="633" y="55" type="line"/>
			<point x="497" y="67" type="line"/>
			<point x="470" y="67" type="line"/>
			<point x="325" y="55" type="line"/>
		</contour>
		<contour>
			<point x="146" y="481" type="line"/>
			<point x="265" y="468" type="line"/>
			<point x="269" y="468" type="line"/>
			<point x="269" y="536" type="line"/>
			<point x="146" y="536" type="line"/>
		</contour>
		<contour>
			<point x="480" y="469" type="line"/>
			<point x="495" y="469" type="line"/>
			<point x="633" y="481" type="line"/>
			<point x="633" y="536" type="line"/>
			<point x="480" y="536" type="line"/>
		</contour>
		<contour>
			<point x="269" y="478" type="line"/>
			<point x="480" y="478" type="line"/>
			<point x="480" y="536" type="line"/>
			<point x="269" y="536" type="line"/>
		</contour>
	</outline>
</glyph>
<glyph name="Fita.sc" format="2">
	<advance width="670"/>
	<outline>
		<contour>
			<point x="504" y="249" type="line"/>
			<point x="504" y="307" type="line"/>
			<point x="166" y="307" type="line"/>
			<point x="166" y="249" type="line"/>
		</contour>
		<contour>
			<point x="216" y="268" type="curve" smooth="yes"/>
			<point x="216" y="434"/>
			<point x="249" y="497"/>
			<point x="335" y="497" type="curve" smooth="yes"/>
			<point x="421" y="497"/>
			<point x="454" y="434"/>
			<point x="454" y="268" type="curve" smooth="yes"/>
			<point x="454" y="102"/>
			<point x="421" y="40"/>
			<point x="335" y="40" type="curve" smooth="yes"/>
			<point x="249" y="40"/>
			<point x="216" y="102"/>
		</contour>
		<contour>
			<point x="335" y="552" type="curve" smooth="yes"/>
			<point x="166" y="552"/>
			<point x="39" y="467"/>
			<point x="39" y="268" type="curve" smooth="yes"/>
			<point x="39" y="69"/>
			<point x="165" y="-16"/>
			<point x="335" y="-16" type="curve" smooth="yes"/>
			<point x="505" y="-16"/>
			<point x="631" y="69"/>
			<point x="631" y="268" type="curve" smooth="yes"/>
			<point x="631" y="467"/>
			<point x="504" y="552"/>
		</contour>
	</outline>
	<anchor name="aboveUC" x="335" y="556"/>
</glyph>
<glyph name="G.sups" format="2">
	<advance width="456"/>
	<outline>
		<contour>
			<point x="310" y="571" type="line"/>
			<point x="362" y="571" type="line"/>
			<point x="442" y="583" type="line"/>
			<point x="442" y="620" type="line"/>
			<point x="231" y="620" type="line"/>
			<point x="231" y="583" type="line"/>
		</contour>
		<contour>
			<point x="409" y="620" type="line"/>
			<point x="289" y="620" type="line"/>
			<point x="289" y="407" type="line"/>
			<point x="345" y="452" type="line"/>
			<point x="319" y="438"/>
			<point x="303" y="431"/>
			<point x="278" y="431" type="curve" smooth="yes"/>
			<point x="212" y="431"/>
			<point x="155" y="487"/>
			<point x="155" y="616" type="curve" smooth="yes"/>
			<point x="155" y="745"/>
			<point x="214" y="799"/>
			<point x="280" y="799" type="curve" smooth="yes"/>
			<point x="306" y="799"/>
			<point x="331" y="791"/>
			<point x="363" y="769" type="curve"/>
			<point x="316" y="810" type="line"/>
			<point x="341" y="706" type="line"/>
			<point x="395" y="706" type="line"/>
			<point x="393" y="808" type="line"/>
			<point x="354" y="827"/>
			<point x="306" y="837"/>
			<point x="265" y="837" type="curve" smooth="yes"/>
			<point x="110" y="837"/>
			<point x="24" y="753"/>
			<point x="24" y="616" type="curve" smooth="yes"/>
			<point x="24" y="473"/>
			<point x="118" y="393"/>
			<point x="256" y="393" type="curve" smooth="yes"/>
			<point x="316" y="393"/>
			<point x="362" y="404"/>
			<point x="409" y="430" type="curve"/>
		</contour>
	</outline>
</glyph>
<glyph name="Gamma.sc" format="2">
	<advance width="554"/>
	<outline>
		<contour>
			<point x="102" y="0" type="curve"/>
			<point x="286" y="0" type="line"/>
			<point x="283" y="85"/>
			<point x="283" y="170"/>
			<point x="283" y="231" type="curve" smooth="yes"/>
			<point x="283" y="281" type="line" smooth="yes"/>
			<point x="283" y="368"/>
			<point x="283" y="453"/>
			<point x="286" y="536" type="curve"/>
			<point x="102" y="536" type="line"/>
			<point x="104" y="451"/>
			<point x="104" y="366"/>
			<point x="104" y="281" type="curve" smooth="yes"/>
			<point x="104" y="231" type="line" smooth="yes"/>
			<point x="104" y="168"/>
			<point x="104" y="83"/>
		</contour>
		<contour>
			<point x="194" y="482" type="line"/>
			<point x="489" y="482" type="line"/>
			<point x="418" y="536" type="line"/>
			<point x="437" y="375" type="line"/>
			<point x="531" y="375" type="line"/>
			<point x="521" y="536" type="line"/>
			<point x="194" y="536" type="line"/>
		</contour>
		<contour>
			<point x="39" y="0" type="line"/>
			<point x="366" y="0" type="line"/>
			<point x="366" y="55" type="line"/>
			<point x="228" y="67" type="line"/>
			<point x="178" y="67" type="line"/>
			<point x="39" y="55" type="line"/>
		</contour>
		<contour>
			<point x="39" y="481" type="line"/>
			<point x="178" y="469" type="line"/>
			<point x="194" y="469" type="line"/>
			<point x="194" y="536" type="line"/>
			<point x="39" y="536" type="line"/>
		</contour>
	</outline>
</glyph>
<glyph name="Ghe.sc" format="1">
	<advance width="554"/>
	<outline>
		<component base="Gamma.sc"/>
		<contour>
			<point name="aboveUC" x="303" y="560" type="move"/>
		</contour>
	</outline>
</glyph>
<glyph name="Hbar.sc" format="2">
	<advance width="711"/>
	<outline>
		<contour>
			<point x="511" y="469" type="line"/>
			<point x="539" y="469" type="line"/>
			<point x="676" y="481" type="line"/>
			<point x="676" y="536" type="line"/>
			<point x="374" y="536" type="line"/>
			<point x="374" y="481" type="line"/>
		</contour>
		<contour>
			<point x="511" y="67" type="line"/>
			<point x="374" y="55" type="line"/>
			<point x="374" y="0" type="line"/>
			<point x="676" y="0" type="line"/>
			<point x="676" y="55" type="line"/>
			<point x="539" y="67" type="line"/>
		</contour>
		<contour>
			<point x="433" y="256" type="line" smooth="yes"/>
			<point x="433" y="168"/>
			<point x="433" y="83"/>
			<point x="430" y="0" type="curve"/>
			<point x="615" y="0" type="line"/>
			<point x="612" y="85"/>
			<point x="612" y="170"/>
			<point x="612" y="255" type="curve" smooth="yes"/>
			<point x="612" y="281" type="line" smooth="yes"/>
			<point x="612" y="368"/>
			<point x="612" y="453"/>
			<point x="615" y="536" type="curve"/>
			<point x="430" y="536" type="line"/>
			<point x="433" y="451"/>
			<point x="433" y="366"/>
			<point x="433" y="281" type="curve" smooth="yes"/>
		</contour>
		<contour>
			<point x="99" y="255" type="line" smooth="yes"/>
			<point x="99" y="168"/>
			<point x="99" y="83"/>
			<point x="96" y="0" type="curve"/>
			<point x="280" y="0" type="line"/>
			<point x="278" y="85"/>
			<point x="278" y="170"/>
			<point x="278" y="256" type="curve" smooth="yes"/>
			<point x="278" y="281" type="line" smooth="yes"/>
			<point x="278" y="368"/>
			<point x="278" y="453"/>
			<point x="280" y="536" type="curve"/>
			<point x="96" y="536" type="line"/>
			<point x="99" y="451"/>
			<point x="99" y="366"/>
			<point x="99" y="281" type="curve" smooth="yes"/>
		</contour>
		<contour>
			<point x="167" y="469" type="line"/>
			<point x="197" y="469" type="line"/>
			<point x="337" y="481" type="line"/>
			<point x="337" y="536" type="line"/>
			<point x="35" y="536" type="line"/>
			<point x="35" y="481" type="line"/>
		</contour>
		<contour>
			<point x="167" y="67" type="line"/>
			<point x="35" y="55" type="line"/>
			<point x="35" y="0" type="line"/>
			<point x="337" y="0" type="line"/>
			<point x="337" y="55" type="line"/>
			<point x="197" y="67" type="line"/>
		</contour>
		<contour>
			<point x="523" y="219" type="line"/>
			<point x="523" y="277" type="line"/>
			<point x="194" y="277" type="line"/>
			<point x="194" y="219" type="line"/>
		</contour>
		<contour>
			<point x="26" y="349" type="line"/>
			<point x="685" y="349" type="line"/>
			<point x="685" y="408" type="line"/>
			<point x="26" y="408" type="line"/>
		</contour>
	</outline>
</glyph>
<glyph name="Ie.sc" format="1">
	<advance width="565"/>
	<outline>
		<component base="E.sc"/>
		<contour>
			<point name="aboveUC" x="299" y="560" type="move"/>
		</contour>
	</outline>
</glyph>
<glyph name="J.sups" format="2">
	<advance width="275"/>
	<outline>
		<contour>
			<point x="122" y="777" type="line"/>
			<point x="152" y="777" type="line"/>
			<point x="254" y="787" type="line"/>
			<point x="254" y="824" type="line"/>
			<point x="25" y="824" type="line"/>
			<point x="25" y="787" type="line"/>
		</contour>
		<contour>
			<point x="67" y="329" type="curve"/>
			<point x="80" y="320" type="line"/>
			<point x="58" y="348" type="line" smooth="yes"/>
			<point x="37" y="376"/>
			<point x="19" y="390"/>
			<point x="-6" y="390" type="curve" smooth="yes"/>
			<point x="-37" y="390"/>
			<point x="-62" y="368"/>
			<point x="-62" y="337" type="curve"/>
			<point x="-44" y="307"/>
			<point x="-16" y="293"/>
			<point x="24" y="293" type="curve" smooth="yes"/>
			<point x="86" y="293"/>
			<point x="139" y="324"/>
			<point x="169" y="376" type="curve" smooth="yes"/>
			<point x="194" y="420"/>
			<point x="207" y="485"/>
			<point x="207" y="578" type="curve" smooth="yes"/>
			<point x="207" y="824" type="line"/>
			<point x="76" y="824" type="line"/>
			<point x="79" y="640"/>
			<point x="82" y="508"/>
			<point x="82" y="436" type="curve" smooth="yes"/>
			<point x="82" y="380"/>
			<point x="78" y="347"/>
		</contour>
	</outline>
</glyph>
<glyph name="M.sc" format="2">
	<advance width="841"/>
	<outline>
		<contour>
			<point x="17" y="0" type="line"/>
			<point x="249" y="0" type="line"/>
			<point x="249" y="55" type="line"/>
			<point x="161" y="67" type="line"/>
			<point x="129" y="67" type="line"/>
			<point x="17" y="55" type="line"/>
		</contour>
		<contour>
			<point x="27" y="481" type="line"/>
			<point x="154" y="469" type="line"/>
			<point x="171" y="469" type="line"/>
			<point x="168" y="536" type="line"/>
			<point x="27" y="536" type="line"/>
		</contour>
		<contour>
			<point x="107" y="0" type="line"/>
			<point x="177" y="0" type="line"/>
			<point x="177" y="242" type="line"/>
			<point x="170" y="536" type="line"/>
			<point x="106" y="536" type="line"/>
		</contour>
		<contour>
			<point x="329" y="0" type="line"/>
			<point x="418" y="0" type="line"/>
			<point x="618" y="536" type="line"/>
			<point x="544" y="536" type="line"/>
			<point x="410" y="168" type="line"/>
			<point x="442" y="168" type="line"/>
			<point x="297" y="536" type="line"/>
			<point x="114" y="536" type="line"/>
		</contour>
		<contour>
			<point x="494" y="0" type="line"/>
			<point x="803" y="0" type="line"/>
			<point x="803" y="55" type="line"/>
			<point x="665" y="67" type="line"/>
			<point x="608" y="67" type="line"/>
			<point x="494" y="55" type="line"/>
		</contour>
		<contour>
			<point x="556" y="0" type="curve"/>
			<point x="740" y="0" type="line"/>
			<point x="738" y="83"/>
			<point x="738" y="168"/>
			<point x="738" y="255" type="curve" smooth="yes"/>
			<point x="738" y="281" type="line" smooth="yes"/>
			<point x="738" y="366"/>
			<point x="738" y="451"/>
			<point x="740" y="536" type="curve"/>
			<point x="563" y="536" type="line"/>
			<point x="559" y="232" type="line" smooth="yes"/>
			<point x="558" y="170"/>
			<point x="559" y="85"/>
		</contour>
		<contour>
			<point x="648" y="469" type="line"/>
			<point x="664" y="469" type="line"/>
			<point x="797" y="481" type="line"/>
			<point x="797" y="536" type="line"/>
			<point x="648" y="536" type="line"/>
		</contour>
	</outline>
	<anchor name="aboveUC" x="412" y="560"/>
	<anchor name="belowLC" x="368" y="-18"/>
</glyph>
<glyph name="Obarcyr.sc" format="1">
	<advance width="670"/>
	<outline>
		<component base="Fita.sc"/>
		<contour>
			<point name="aboveUC" x="335" y="560" type="move"/>
		</contour>
	</outline>
</glyph>
<glyph name="Oslash.sc" format="1">
	<advance width="670"/>
	<outline>
		<contour>
			<point x="616" y="521" type="line"/>
			<point x="553" y="568" type="line"/>
			<point x="54" y="15" type="line"/>
			<point x="117" y="-32" type="line"/>
		</contour>
		<component base="O.sc"/>
		<contour>
			<point name="aboveUC" x="335" y="560" type="move"/>
		</contour>
	</outline>
</glyph>
<glyph name="Psi.sc" format="2">
	<advance width="777"/>
	<outline>
		<contour>
			<point x="389" y="189" type="curve" smooth="yes"/>
			<point x="634" y="189"/>
			<point x="685" y="256"/>
			<point x="712" y="401" type="curve" smooth="yes"/>
			<point x="718" y="437" type="line" smooth="yes"/>
			<point x="723" y="464"/>
			<point x="734" y="480"/>
			<point x="765" y="480" type="curve" smooth="yes"/>
			<point x="784" y="481" type="line"/>
			<point x="784" y="536" type="line"/>
			<point x="732" y="536" type="line" smooth="yes"/>
			<point x="624" y="536"/>
			<point x="578" y="507"/>
			<point x="566" y="422" type="curve" smooth="yes"/>
			<point x="560" y="377" type="line" smooth="yes"/>
			<point x="545" y="274"/>
			<point x="520" y="238"/>
			<point x="389" y="238" type="curve" smooth="yes"/>
			<point x="258" y="238"/>
			<point x="232" y="274"/>
			<point x="218" y="377" type="curve" smooth="yes"/>
			<point x="212" y="422" type="line" smooth="yes"/>
			<point x="200" y="507"/>
			<point x="153" y="536"/>
			<point x="45" y="536" type="curve" smooth="yes"/>
			<point x="-6" y="536" type="line"/>
			<point x="-6" y="481" type="line"/>
			<point x="13" y="480" type="line" smooth="yes"/>
			<point x="44" y="480"/>
			<point x="54" y="464"/>
			<point x="59" y="437" type="curve" smooth="yes"/>
			<point x="66" y="401" type="line" smooth="yes"/>
			<point x="92" y="256"/>
			<point x="144" y="189"/>
		</contour>
		<contour>
			<point x="305" y="0" type="curve"/>
			<point x="472" y="0" type="line"/>
			<point x="469" y="85"/>
			<point x="469" y="170"/>
			<point x="469" y="255" type="curve" smooth="yes"/>
			<point x="469" y="281" type="line" smooth="yes"/>
			<point x="469" y="368"/>
			<point x="469" y="453"/>
			<point x="472" y="536" type="curve"/>
			<point x="305" y="536" type="line"/>
			<point x="308" y="451"/>
			<point x="308" y="366"/>
			<point x="308" y="281" type="curve" smooth="yes"/>
			<point x="308" y="255" type="line" smooth="yes"/>
			<point x="308" y="168"/>
			<point x="308" y="83"/>
		</contour>
		<contour>
			<point x="242" y="0" type="line"/>
			<point x="535" y="0" type="line"/>
			<point x="535" y="55" type="line"/>
			<point x="402" y="67" type="line"/>
			<point x="372" y="67" type="line"/>
			<point x="242" y="55" type="line"/>
		</contour>
		<contour>
			<point x="260" y="481" type="line"/>
			<point x="372" y="469" type="line"/>
			<point x="402" y="469" type="line"/>
			<point x="517" y="481" type="line"/>
			<point x="517" y="536" type="line"/>
			<point x="260" y="536" type="line"/>
		</contour>
	</outline>
</glyph>
<glyph name="Schwa.sc" format="2">
	<advance width="638"/>
	<outline>
		<contour>
			<point x="39" y="227" type="curve" smooth="yes"/>
			<point x="39" y="92"/>
			<point x="129" y="-16"/>
			<point x="318" y="-16" type="curve" smooth="yes"/>
			<point x="465" y="-16"/>
			<point x="599" y="74"/>
			<point x="599" y="271" type="curve" smooth="yes"/>
			<point x="599" y="446"/>
			<point x="479" y="552"/>
			<point x="295" y="552" type="curve" smooth="yes"/>
			<point x="225" y="552"/>
			<point x="144" y="526"/>
			<point x="92" y="472" type="curve"/>
			<point x="125" y="432" type="line"/>
			<point x="165" y="468"/>
			<point x="218" y="490"/>
			<point x="277" y="490" type="curve" smooth="yes"/>
			<point x="382" y="490"/>
			<point x="413" y="413"/>
			<point x="413" y="264" type="curve" smooth="yes"/>
			<point x="413" y="120"/>
			<point x="378" y="39"/>
			<point x="322" y="39" type="curve" smooth="yes"/>
			<point x="273" y="39"/>
			<point x="225" y="66"/>
			<point x="225" y="178" type="curve" smooth="yes"/>
			<point x="225" y="200"/>
			<point x="227" y="223"/>
			<point x="231" y="243" type="curve"/>
			<point x="508" y="243" type="line"/>
			<point x="508" y="300" type="line"/>
			<point x="45" y="300" type="line"/>
			<point x="40" y="277"/>
			<point x="39" y="257"/>
		</contour>
	</outline>
	<anchor name="aboveUC" x="319" y="560"/>
	<anchor name="belowLC" x="328" y="-18"/>
</glyph>
<glyph name="U.sups" format="2">
	<advance width="495"/>
	<outline>
		<contour>
			<point x="21" y="787" type="line"/>
			<point x="124" y="777" type="line"/>
			<point x="144" y="777" type="line"/>
			<point x="247" y="787" type="line"/>
			<point x="247" y="824" type="line"/>
			<point x="21" y="824" type="line"/>
		</contour>
		<contour>
			<point x="245" y="393" type="curve" smooth="yes"/>
			<point x="359" y="393"/>
			<point x="421" y="456"/>
			<point x="421" y="589" type="curve" smooth="yes"/>
			<point x="421" y="824" type="line"/>
			<point x="375" y="824" type="line"/>
			<point x="375" y="584" type="line" smooth="yes"/>
			<point x="375" y="493"/>
			<point x="340" y="456"/>
			<point x="285" y="456" type="curve" smooth="yes"/>
			<point x="223" y="456"/>
			<point x="197" y="491"/>
			<point x="197" y="585" type="curve" smooth="yes"/>
			<point x="197" y="824" type="line"/>
			<point x="67" y="824" type="line"/>
			<point x="67" y="571" type="line" smooth="yes"/>
			<point x="67" y="438"/>
			<point x="142" y="393"/>
		</contour>
		<contour>
			<point x="317" y="787" type="line"/>
			<point x="387" y="782" type="line"/>
			<point x="408" y="782" type="line"/>
			<point x="475" y="787" type="line"/>
			<point x="475" y="824" type="line"/>
			<point x="317" y="824" type="line"/>
		</contour>
	</outline>
</glyph>
<glyph name="Uogonek.sc" format="2">
	<advance width="696"/>
	<outline>
		<contour>
			<point x="35" y="481" type="line"/>
			<point x="178" y="469" type="line"/>
			<point x="207" y="469" type="line"/>
			<point x="350" y="481" type="line"/>
			<point x="350" y="536" type="line"/>
			<point x="35" y="536" type="line"/>
		</contour>
		<contour>
			<point x="312" y="-104" type="curve" smooth="yes"/>
			<point x="312" y="-150"/>
			<point x="349" y="-186"/>
			<point x="420" y="-186" type="curve" smooth="yes"/>
			<point x="472" y="-186"/>
			<point x="520" y="-172"/>
			<point x="551" y="-145" type="curve"/>
			<point x="535" y="-97" type="line"/>
			<point x="522" y="-100"/>
			<point x="508" y="-104"/>
			<point x="484" y="-104" type="curve" smooth="yes"/>
			<point x="446" y="-104"/>
			<point x="422" y="-84"/>
			<point x="422" y="-53" type="curve" smooth="yes"/>
			<point x="422" y="-32"/>
			<point x="429" y="-9"/>
			<point x="469" y="7" type="curve" smooth="yes"/>
			<point x="548" y="38"/>
			<point x="593" y="116"/>
			<point x="593" y="235" type="curve" smooth="yes"/>
			<point x="591" y="536" type="line"/>
			<point x="521" y="536" type="line"/>
			<point x="520" y="228" type="line" smooth="yes"/>
			<point x="519" y="114"/>
			<point x="473" y="67"/>
			<point x="400" y="67" type="curve" smooth="yes"/>
			<point x="317" y="67"/>
			<point x="279" y="111"/>
			<point x="279" y="230" type="curve" smooth="yes"/>
			<point x="279" y="293" type="line" smooth="yes"/>
			<point x="279" y="374"/>
			<point x="279" y="456"/>
			<point x="282" y="536" type="curve"/>
			<point x="97" y="536" type="line"/>
			<point x="100" y="455"/>
			<point x="100" y="372"/>
			<point x="100" y="293" type="curve" smooth="yes"/>
			<point x="100" y="198" type="line" smooth="yes"/>
			<point x="100" y="41"/>
			<point x="201" y="-16"/>
			<point x="336" y="-16" type="curve" smooth="yes"/>
			<point x="360" y="-16"/>
			<point x="381" y="-15"/>
			<point x="401" y="-12" type="curve"/>
			<point x="397" y="-2" type="line"/>
			<point x="342" y="-23"/>
			<point x="312" y="-56"/>
		</contour>
		<contour>
			<point x="444" y="481" type="line"/>
			<point x="541" y="478" type="line"/>
			<point x="571" y="478" type="line"/>
			<point x="663" y="481" type="line"/>
			<point x="663" y="536" type="line"/>
			<point x="444" y="536" type="line"/>
		</contour>
	</outline>
	<anchor name="aboveUC" x="399" y="560"/>
	<anchor name="hornLC" x="579" y="559"/>
	<anchor name="belowLC" x="367" y="-18"/>
</glyph>
<glyph name="Zedescender.sc" format="1">
	<advance width="536"/>
	<outline>
		<contour>
			<point x="152" y="-211" type="line"/>
			<point x="177" y="-222"/>
			<point x="207" y="-227"/>
			<point x="248" y="-227" type="curve" smooth="yes"/>
			<point x="331" y="-227"/>
			<point x="377" y="-188"/>
			<point x="377" y="-137" type="curve" smooth="yes"/>
			<point x="377" y="-89"/>
			<point x="322" y="-30"/>
			<point x="264" y="0" type="curve"/>
			<point x="225" y="0" type="line"/>
			<point x="261" y="-50"/>
			<point x="273" y="-76"/>
			<point x="273" y="-115" type="curve" smooth="yes"/>
			<point x="273" y="-156"/>
			<point x="245" y="-170"/>
			<point x="216" y="-170" type="curve" smooth="yes"/>
			<point x="195" y="-170"/>
			<point x="180" y="-167"/>
			<point x="163" y="-161" type="curve"/>
		</contour>
		<component base="Ze.sc"/>
	</outline>
</glyph>
<glyph name="ampersand.sc" format="2">
	<advance width="681"/>
	<outline>
		<contour>
			<point x="216" y="-13" type="curve" smooth="yes"/>
			<point x="340" y="-13"/>
			<point x="391" y="32"/>
			<point x="419" y="69" type="curve"/>
			<point x="427" y="69" type="line"/>
			<point x="390" y="97" type="line"/>
			<point x="367" y="74"/>
			<point x="336" y="62"/>
			<point x="291" y="62" type="curve" smooth="yes"/>
			<point x="229" y="62"/>
			<point x="172" y="100"/>
			<point x="172" y="166" type="curve" smooth="yes"/>
			<point x="172" y="211"/>
			<point x="193" y="243"/>
			<point x="228" y="272" type="curve"/>
			<point x="213" y="302" type="line"/>
			<point x="213" y="293" type="line"/>
			<point x="78" y="252"/>
			<point x="30" y="197"/>
			<point x="30" y="129" type="curve" smooth="yes"/>
			<point x="30" y="53"/>
			<point x="90" y="-13"/>
		</contour>
		<contour>
			<point x="473" y="105" type="line"/>
			<point x="539" y="181"/>
			<point x="574" y="232"/>
			<point x="607" y="325" type="curve"/>
			<point x="522" y="325" type="line"/>
			<point x="505" y="241"/>
			<point x="490" y="205"/>
			<point x="435" y="131" type="curve"/>
			<point x="427" y="131" type="line"/>
		</contour>
		<contour>
			<point x="448" y="305" type="line"/>
			<point x="539" y="291" type="line"/>
			<point x="559" y="291" type="line"/>
			<point x="657" y="305" type="line"/>
			<point x="657" y="349" type="line"/>
			<point x="448" y="349" type="line"/>
		</contour>
		<contour>
			<point x="548" y="-13" type="curve" smooth="yes"/>
			<point x="577" y="-13"/>
			<point x="598" y="-10"/>
			<point x="646" y="0" type="curve"/>
			<point x="658" y="79" type="line"/>
			<point x="494" y="115" type="line"/>
			<point x="574" y="75" type="line"/>
			<point x="507" y="142"/>
			<point x="474" y="169"/>
			<point x="392" y="249" type="curve" smooth="yes"/>
			<point x="303" y="336"/>
			<point x="286" y="355"/>
			<point x="269" y="375" type="curve" smooth="yes"/>
			<point x="244" y="404"/>
			<point x="239" y="431"/>
			<point x="239" y="453" type="curve" smooth="yes"/>
			<point x="239" y="486"/>
			<point x="260" y="510"/>
			<point x="293" y="510" type="curve" smooth="yes"/>
			<point x="328" y="510"/>
			<point x="347" y="488"/>
			<point x="347" y="458" type="curve" smooth="yes"/>
			<point x="347" y="429"/>
			<point x="336" y="381"/>
			<point x="284" y="328" type="curve"/>
			<point x="315" y="301" type="line"/>
			<point x="315" y="310" type="line"/>
			<point x="416" y="344"/>
			<point x="461" y="382"/>
			<point x="461" y="439" type="curve" smooth="yes"/>
			<point x="461" y="504"/>
			<point x="401" y="546"/>
			<point x="295" y="546" type="curve" smooth="yes"/>
			<point x="183" y="546"/>
			<point x="113" y="494"/>
			<point x="113" y="410" type="curve" smooth="yes"/>
			<point x="113" y="371"/>
			<point x="126" y="330"/>
			<point x="167" y="282" type="curve" smooth="yes"/>
			<point x="183" y="263"/>
			<point x="212" y="229"/>
			<point x="279" y="155" type="curve" smooth="yes"/>
			<point x="313" y="118"/>
			<point x="354" y="68"/>
			<point x="403" y="32" type="curve" smooth="yes"/>
			<point x="450" y="-2"/>
			<point x="493" y="-13"/>
		</contour>
	</outline>
</glyph>
<glyph name="be.srb" format="2">
	<advance width="580"/>
	<outline>
		<contour>
			<point x="283" y="-16" type="curve" smooth="yes"/>
			<point x="460" y="-16"/>
			<point x="554" y="88"/>
			<point x="554" y="222" type="curve" smooth="yes"/>
			<point x="554" y="345"/>
			<point x="482" y="415"/>
			<point x="371" y="447" type="curve" smooth="yes"/>
			<point x="284" y="472"/>
			<point x="207" y="491"/>
			<point x="207" y="511" type="curve" smooth="yes"/>
			<point x="207" y="530"/>
			<point x="252" y="537"/>
			<point x="348" y="549" type="curve" smooth="yes"/>
			<point x="448" y="562"/>
			<point x="486" y="568"/>
			<point x="512" y="594" type="curve" smooth="yes"/>
			<point x="535" y="617"/>
			<point x="550" y="669"/>
			<point x="552" y="762" type="curve"/>
			<point x="501" y="774" type="line"/>
			<point x="484" y="733" type="line"/>
			<point x="297" y="712"/>
			<point x="144" y="684"/>
			<point x="99" y="639" type="curve" smooth="yes"/>
			<point x="77" y="617"/>
			<point x="70" y="589"/>
			<point x="70" y="556" type="curve" smooth="yes"/>
			<point x="70" y="471"/>
			<point x="147" y="448"/>
			<point x="247" y="407" type="curve" smooth="yes"/>
			<point x="318" y="377"/>
			<point x="352" y="346"/>
			<point x="352" y="219" type="curve" smooth="yes"/>
			<point x="352" y="94"/>
			<point x="333" y="40"/>
			<point x="288" y="40" type="curve" smooth="yes"/>
			<point x="251" y="40"/>
			<point x="221" y="73"/>
			<point x="221" y="224" type="curve" smooth="yes"/>
			<point x="221" y="326"/>
			<point x="246" y="381"/>
			<point x="295" y="421" type="curve"/>
			<point x="284" y="439" type="line"/>
			<point x="188" y="418"/>
			<point x="22" y="376"/>
			<point x="22" y="213" type="curve" smooth="yes"/>
			<point x="22" y="80"/>
			<point x="126" y="-16"/>
		</contour>
	</outline>
</glyph>
<glyph name="bracketleft.sc" format="2">
	<advance width="381"/>
	<outline>
		<contour>
			<point x="204" y="-131" type="line"/>
			<point x="366" y="-131" type="line"/>
			<point x="366" y="-77" type="line"/>
			<point x="223" y="-65" type="line"/>
			<point x="204" y="-65" type="line"/>
		</contour>
		<contour>
			<point x="204" y="521" type="line"/>
			<point x="223" y="521" type="line"/>
			<point x="366" y="534" type="line"/>
			<point x="366" y="587" type="line"/>
			<point x="204" y="587" type="line"/>
		</contour>
		<contour>
			<point x="141" y="130" type="line" smooth="yes"/>
			<point x="141" y="42"/>
			<point x="141" y="-46"/>
			<point x="138" y="-131" type="curve"/>
			<point x="270" y="-131" type="line"/>
			<point x="268" y="-44"/>
			<point x="268" y="44"/>
			<point x="268" y="130" type="curve" smooth="yes"/>
			<point x="268" y="327" type="line" smooth="yes"/>
			<point x="268" y="415"/>
			<point x="268" y="503"/>
			<point x="270" y="587" type="curve"/>
			<point x="138" y="587" type="line"/>
			<point x="141" y="501"/>
			<point x="141" y="413"/>
			<point x="141" y="327" type="curve" smooth="yes"/>
		</contour>
	</outline>
</glyph>
<glyph name="brevecmb.cyr" format="1">
	<outline>
		<contour>
			<point x="0" y="563" type="curve" smooth="yes"/>
			<point x="111" y="563"/>
			<point x="184" y="610"/>
			<point x="184" y="719" type="curve"/>
			<point x="172" y="747"/>
			<point x="154" y="761"/>
			<point x="125" y="761" type="curve" smooth="yes"/>
			<point x="94" y="761"/>
			<point x="60" y="741"/>
			<point x="60" y="664" type="curve" smooth="yes"/>
			<point x="60" y="645"/>
			<point x="63" y="620"/>
			<point x="68" y="597" type="curve"/>
			<point x="128" y="647" type="line"/>
			<point x="91" y="627"/>
			<point x="39" y="618"/>
			<point x="0" y="618" type="curve" smooth="yes"/>
			<point x="-39" y="618"/>
			<point x="-91" y="627"/>
			<point x="-128" y="647" type="curve"/>
			<point x="-68" y="597" type="line"/>
			<point x="-63" y="620"/>
			<point x="-60" y="645"/>
			<point x="-60" y="664" type="curve" smooth="yes"/>
			<point x="-60" y="741"/>
			<point x="-94" y="761"/>
			<point x="-125" y="761" type="curve" smooth="yes"/>
			<point x="-154" y="761"/>
			<point x="-172" y="747"/>
			<point x="-184" y="719" type="curve"/>
			<point x="-184" y="610"/>
			<point x="-111" y="563"/>
		</contour>
		<contour>
			<point name="_aboveLC" x="0" y="520" type="move"/>
		</contour>
	</outline>
</glyph>
<glyph name="brevetilde" format="2">
	<outline>
		<contour>
			<point x="0" y="553" type="curve" smooth="yes"/>
			<point x="107" y="553"/>
			<point x="158" y="613"/>
			<point x="173" y="690" type="curve"/>
			<point x="121" y="711" type="line"/>
			<point x="96" y="666"/>
			<point x="59" y="642"/>
			<point x="0" y="642" type="curve" smooth="yes"/>
			<point x="-59" y="642"/>
			<point x="-96" y="666"/>
			<point x="-121" y="711" type="curve"/>
			<point x="-173" y="690" type="line"/>
			<point x="-158" y="613"/>
			<point x="-107" y="553"/>
		</contour>
		<contour>
			<point x="-183" y="752" type="curve"/>
			<point x="-136" y="736" type="line"/>
			<point x="-124" y="759"/>
			<point x="-103" y="774"/>
			<point x="-75" y="774" type="curve" smooth="yes"/>
			<point x="-50" y="774"/>
			<point x="-31" y="767"/>
			<point x="-11" y="761" type="curve" smooth="yes"/>
			<point x="11" y="754"/>
			<point x="40" y="743"/>
			<point x="75" y="743" type="curve" smooth="yes"/>
			<point x="133" y="743"/>
			<point x="172" y="787"/>
			<point x="183" y="866" type="curve"/>
			<point x="136" y="882" type="line"/>
			<point x="124" y="857"/>
			<point x="102" y="843"/>
			<point x="74" y="843" type="curve" smooth="yes"/>
			<point x="50" y="843"/>
			<point x="30" y="850"/>
			<point x="10" y="856" type="curve" smooth="yes"/>
			<point x="-11" y="862"/>
			<point x="-35" y="873"/>
			<point x="-70" y="873" type="curve" smooth="yes"/>
			<point x="-132" y="873"/>
			<point x="-172" y="830"/>
		</contour>
	</outline>
	<anchor name="_aboveLC" x="0" y="507"/>
</glyph>
<glyph name="circumflexcmb.cap" format="2">
	<outline>
		<contour>
			<point x="41" y="882" type="line"/>
			<point x="-41" y="882" type="line"/>
			<point x="-198" y="715" type="line"/>
			<point x="-164" y="675" type="line"/>
			<point x="50" y="792" type="line"/>
			<point x="-50" y="792" type="line"/>
			<point x="164" y="675" type="line"/>
			<point x="198" y="715" type="line"/>
		</contour>
	</outline>
	<anchor name="_aboveUC" x="0" y="672"/>
	<anchor name="aboveUC" x="0" y="882"/>
</glyph>
<glyph name="dieresistonoscmb" format="2">
	<outline>
		<contour>
			<point x="-130" y="588" type="curve" smooth="yes"/>
			<point x="-97" y="588"/>
			<point x="-68" y="609"/>
			<point x="-68" y="648" type="curve" smooth="yes"/>
			<point x="-68" y="687"/>
			<point x="-97" y="709"/>
			<point x="-130" y="709" type="curve" smooth="yes"/>
			<point x="-162" y="709"/>
			<point x="-192" y="687"/>
			<point x="-192" y="648" type="curve" smooth="yes"/>
			<point x="-192" y="609"/>
			<point x="-162" y="588"/>
		</contour>
		<contour>
			<point x="19" y="545" type="line"/>
			<point x="67" y="659" type="line" smooth="yes"/>
			<point x="85" y="701"/>
			<point x="95" y="725"/>
			<point x="95" y="749" type="curve" smooth="yes"/>
			<point x="95" y="793"/>
			<point x="62" y="810"/>
			<point x="34" y="810" type="curve" smooth="yes"/>
			<point x="-15" y="810"/>
			<point x="-33" y="774"/>
			<point x="-35" y="717" type="curve" smooth="yes"/>
			<point x="-40" y="556" type="line"/>
		</contour>
		<contour>
			<point x="164" y="588" type="curve" smooth="yes"/>
			<point x="197" y="588"/>
			<point x="226" y="609"/>
			<point x="226" y="648" type="curve" smooth="yes"/>
			<point x="226" y="687"/>
			<point x="197" y="709"/>
			<point x="164" y="709" type="curve" smooth="yes"/>
			<point x="133" y="709"/>
			<point x="102" y="687"/>
			<point x="102" y="648" type="curve" smooth="yes"/>
			<point x="102" y="609"/>
			<point x="133" y="588"/>
		</contour>
	</outline>
	<anchor name="_aboveLC" x="0" y="507"/>
</glyph>
<glyph name="eight.lf" format="2">
	<advance width="540"/>
	<outline>
		<contour>
			<point x="33" y="130" type="curve" smooth="yes"/>
			<point x="33" y="45"/>
			<point x="98" y="-16"/>
			<point x="250" y="-16" type="curve" smooth="yes"/>
			<point x="418" y="-16"/>
			<point x="508" y="55"/>
			<point x="508" y="170" type="curve" smooth="yes"/>
			<point x="508" y="259"/>
			<point x="452" y="327"/>
			<point x="341" y="376" type="curve" smooth="yes"/>
			<point x="219" y="430"/>
			<point x="196" y="469"/>
			<point x="196" y="512" type="curve" smooth="yes"/>
			<point x="196" y="557"/>
			<point x="232" y="585"/>
			<point x="272" y="585" type="curve" smooth="yes"/>
			<point x="317" y="585"/>
			<point x="345" y="550"/>
			<point x="345" y="505" type="curve" smooth="yes"/>
			<point x="345" y="458"/>
			<point x="335" y="424"/>
			<point x="291" y="362" type="curve"/>
			<point x="314" y="344" type="line"/>
			<point x="446" y="386"/>
			<point x="490" y="437"/>
			<point x="490" y="499" type="curve" smooth="yes"/>
			<point x="490" y="573"/>
			<point x="429" y="640"/>
			<point x="277" y="640" type="curve" smooth="yes"/>
			<point x="140" y="640"/>
			<point x="41" y="567"/>
			<point x="41" y="454" type="curve" smooth="yes"/>
			<point x="41" y="368"/>
			<point x="98" y="303"/>
			<point x="196" y="262" type="curve" smooth="yes"/>
			<point x="308" y="214"/>
			<point x="341" y="172"/>
			<point x="341" y="117" type="curve" smooth="yes"/>
			<point x="341" y="78"/>
			<point x="319" y="39"/>
			<point x="267" y="39" type="curve" smooth="yes"/>
			<point x="219" y="39"/>
			<point x="184" y="81"/>
			<point x="184" y="139" type="curve" smooth="yes"/>
			<point x="184" y="192"/>
			<point x="200" y="232"/>
			<point x="250" y="285" type="curve"/>
			<point x="225" y="301" type="line"/>
			<point x="102" y="270"/>
			<point x="33" y="211"/>
		</contour>
	</outline>
</glyph>
<glyph name="endash.sc" format="2">
	<advance width="543"/>
	<outline>
		<contour>
			<point x="56" y="216" type="line"/>
			<point x="487" y="216" type="line"/>
			<point x="487" y="303" type="line"/>
			<point x="56" y="303" type="line"/>
		</contour>
	</outline>
</glyph>
<glyph name="endash.sups" format="2">
	<advance width="392"/>
	<outline>
		<contour>
			<point x="46" y="554" type="line"/>
			<point x="346" y="554" type="line"/>
			<point x="346" y="624" type="line"/>
			<point x="46" y="624" type="line"/>
		</contour>
	</outline>
</glyph>
<glyph name="exclam.sc" format="2">
	<advance width="406"/>
	<outline>
		<contour>
			<point x="172" y="218" type="line"/>
			<point x="234" y="218" type="line"/>
			<point x="260" y="284" type="line" smooth="yes"/>
			<point x="297" y="378"/>
			<point x="304" y="428"/>
			<point x="304" y="457" type="curve" smooth="yes"/>
			<point x="304" y="513"/>
			<point x="264" y="544"/>
			<point x="203" y="544" type="curve" smooth="yes"/>
			<point x="141" y="544"/>
			<point x="102" y="513"/>
			<point x="102" y="457" type="curve" smooth="yes"/>
			<point x="102" y="428"/>
			<point x="108" y="379"/>
			<point x="146" y="284" type="curve" smooth="yes"/>
		</contour>
		<contour>
			<point x="203" y="-13" type="curve" smooth="yes"/>
			<point x="257" y="-13"/>
			<point x="298" y="24"/>
			<point x="298" y="71" type="curve" smooth="yes"/>
			<point x="298" y="118"/>
			<point x="257" y="155"/>
			<point x="203" y="155" type="curve" smooth="yes"/>
			<point x="149" y="155"/>
			<point x="108" y="118"/>
			<point x="108" y="71" type="curve" smooth="yes"/>
			<point x="108" y="24"/>
			<point x="149" y="-13"/>
		</contour>
	</outline>
</glyph>
<glyph name="hoicmb.cap" format="1">
	<outline>
		<contour>
			<point x="-37" y="704" type="line"/>
			<point x="47" y="714"/>
			<point x="95" y="745"/>
			<point x="95" y="802" type="curve" smooth="yes"/>
			<point x="95" y="870"/>
			<point x="42" y="910"/>
			<point x="-66" y="919" type="curve"/>
			<point x="-75" y="805" type="line"/>
			<point x="-12" y="800"/>
			<point x="7" y="792"/>
			<point x="7" y="778" type="curve" smooth="yes"/>
			<point x="7" y="769"/>
			<point x="1" y="760"/>
			<point x="-46" y="751" type="curve"/>
		</contour>
		<contour>
			<point name="_aboveUC" x="0" y="682" type="move"/>
		</contour>
	</outline>
</glyph>
<glyph name="macroncmb.cap" format="2">
	<outline>
		<contour>
			<point x="-165" y="717" type="line"/>
			<point x="165" y="717" type="line"/>
			<point x="165" y="817" type="line"/>
			<point x="-165" y="817" type="line"/>
		</contour>
	</outline>
	<anchor name="_aboveUC" x="0" y="682"/>
	<anchor name="aboveUC" x="0" y="827"/>
</glyph>
<glyph name="question.sc" format="2">
	<advance width="481"/>
	<outline>
		<contour>
			<point x="154" y="192" type="line"/>
			<point x="222" y="192" type="line"/>
			<point x="223" y="208" type="line" smooth="yes"/>
			<point x="226" y="230"/>
			<point x="232" y="232"/>
			<point x="256" y="237" type="curve" smooth="yes"/>
			<point x="298" y="248" type="line" smooth="yes"/>
			<point x="379" y="267"/>
			<point x="407" y="300"/>
			<point x="407" y="360" type="curve" smooth="yes"/>
			<point x="407" y="433"/>
			<point x="308" y="527"/>
			<point x="176" y="552" type="curve"/>
			<point x="121" y="538"/>
			<point x="96" y="517"/>
			<point x="96" y="483" type="curve" smooth="yes"/>
			<point x="96" y="449"/>
			<point x="114" y="427"/>
			<point x="189" y="417" type="curve" smooth="yes"/>
			<point x="336" y="399" type="line"/>
			<point x="289" y="448" type="line"/>
			<point x="311" y="417"/>
			<point x="317" y="404"/>
			<point x="317" y="389" type="curve" smooth="yes"/>
			<point x="317" y="373"/>
			<point x="308" y="365"/>
			<point x="281" y="361" type="curve" smooth="yes"/>
			<point x="202" y="349" type="line" smooth="yes"/>
			<point x="151" y="341"/>
			<point x="128" y="327"/>
			<point x="128" y="297" type="curve" smooth="yes"/>
			<point x="128" y="274"/>
			<point x="133" y="251"/>
			<point x="144" y="221" type="curve" smooth="yes"/>
		</contour>
		<contour>
			<point x="198" y="-13" type="curve" smooth="yes"/>
			<point x="252" y="-13"/>
			<point x="293" y="24"/>
			<point x="293" y="71" type="curve" smooth="yes"/>
			<point x="293" y="118"/>
			<point x="252" y="155"/>
			<point x="198" y="155" type="curve" smooth="yes"/>
			<point x="145" y="155"/>
			<point x="101" y="118"/>
			<point x="101" y="71" type="curve" smooth="yes"/>
			<point x="101" y="24"/>
			<point x="145" y="-13"/>
		</contour>
	</outline>
</glyph>
<glyph name="seven.cap" format="1">
	<advance width="560"/>
	<outline>
		<contour>
			<point x="99" y="10" type="line"/>
			<point x="109" y="0" type="line"/>
			<point x="283" y="0" type="line"/>
			<point x="517" y="565" type="line"/>
			<point x="517" y="652" type="line"/>
			<point x="55" y="652" type="line"/>
			<point x="55" y="512" type="line"/>
			<point x="463" y="512" type="line"/>
			<point x="432" y="562" type="line"/>
		</contour>
	</outline>
</glyph>
<glyph name="six.lf" format="1">
	<advance width="540"/>
	<outline>
		<contour>
			<point x="282" y="39" type="curve" smooth="yes"/>
			<point x="240" y="39"/>
			<point x="206" y="100"/>
			<point x="206" y="279" type="curve" smooth="yes"/>
			<point x="206" y="435"/>
			<point x="303" y="539"/>
			<point x="476" y="583" type="curve"/>
			<point x="470" y="640" type="line"/>
			<point x="208" y="620"/>
			<point x="16" y="459"/>
			<point x="16" y="252" type="curve" smooth="yes"/>
			<point x="16" y="79"/>
			<point x="121" y="-16"/>
			<point x="282" y="-16" type="curve" smooth="yes"/>
			<point x="412" y="-16"/>
			<point x="525" y="56"/>
			<point x="525" y="201" type="curve" smooth="yes"/>
			<point x="525" y="316"/>
			<point x="467" y="392"/>
			<point x="341" y="392" type="curve" smooth="yes"/>
			<point x="259" y="392"/>
			<point x="193" y="355"/>
			<point x="162" y="270" type="curve"/>
			<point x="185" y="260" type="line"/>
			<point x="209" y="306"/>
			<point x="238" y="322"/>
			<point x="267" y="322" type="curve" smooth="yes"/>
			<point x="319" y="322"/>
			<point x="340" y="270"/>
			<point x="340" y="178" type="curve" smooth="yes"/>
			<point x="340" y="79"/>
			<point x="315" y="39"/>
		</contour>
	</outline>
</glyph>
<glyph name="soft.bgr" format="2">
	<advance width="541"/>
	<outline>
		<contour>
			<point x="285" y="-16" type="curve" smooth="yes"/>
			<point x="461" y="-16"/>
			<point x="531" y="65"/>
			<point x="531" y="163" type="curve" smooth="yes"/>
			<point x="531" y="241"/>
			<point x="488" y="324"/>
			<point x="351" y="324" type="curve" smooth="yes"/>
			<point x="284" y="324"/>
			<point x="216" y="308"/>
			<point x="165" y="282" type="curve"/>
			<point x="165" y="242" type="line"/>
			<point x="196" y="261"/>
			<point x="244" y="273"/>
			<point x="287" y="273" type="curve" smooth="yes"/>
			<point x="337" y="273"/>
			<point x="361" y="242"/>
			<point x="361" y="144" type="curve" smooth="yes"/>
			<point x="361" y="65"/>
			<point x="337" y="39"/>
			<point x="303" y="39" type="curve" smooth="yes"/>
			<point x="278" y="39"/>
			<point x="260" y="58"/>
			<point x="260" y="115" type="curve" smooth="yes"/>
			<point x="260" y="345" type="line"/>
			<point x="265" y="487" type="line"/>
			<point x="247" y="498" type="line"/>
			<point x="20" y="463" type="line"/>
			<point x="20" y="418" type="line"/>
			<point x="108" y="398" type="line"/>
			<point x="72" y="435" type="line"/>
			<point x="68" y="173" type="line" smooth="yes"/>
			<point x="66" y="30"/>
			<point x="133" y="-16"/>
		</contour>
	</outline>
</glyph>
<glyph name="three.sc" format="2">
	<advance width="547"/>
	<outline>
		<contour>
			<point x="267" y="-13" type="curve" smooth="yes"/>
			<point x="419" y="-13"/>
			<point x="506" y="52"/>
			<point x="506" y="140" type="curve" smooth="yes"/>
			<point x="506" y="224"/>
			<point x="457" y="273"/>
			<point x="322" y="285" type="curve"/>
			<point x="322" y="271" type="line"/>
			<point x="444" y="287"/>
			<point x="488" y="357"/>
			<point x="488" y="409" type="curve" smooth="yes"/>
			<point x="488" y="486"/>
			<point x="421" y="549"/>
			<point x="274" y="549" type="curve" smooth="yes"/>
			<point x="175" y="549"/>
			<point x="83" y="508"/>
			<point x="89" y="413" type="curve"/>
			<point x="100" y="399"/>
			<point x="120" y="388"/>
			<point x="143" y="388" type="curve" smooth="yes"/>
			<point x="177" y="388"/>
			<point x="210" y="403"/>
			<point x="217" y="447" type="curve" smooth="yes"/>
			<point x="229" y="526" type="line"/>
			<point x="168" y="488" type="line"/>
			<point x="195" y="495"/>
			<point x="218" y="499"/>
			<point x="233" y="499" type="curve" smooth="yes"/>
			<point x="288" y="499"/>
			<point x="321" y="468"/>
			<point x="321" y="403" type="curve" smooth="yes"/>
			<point x="321" y="327"/>
			<point x="281" y="301"/>
			<point x="215" y="301" type="curve" smooth="yes"/>
			<point x="192" y="301" type="line"/>
			<point x="192" y="247" type="line"/>
			<point x="220" y="247" type="line" smooth="yes"/>
			<point x="289" y="247"/>
			<point x="329" y="215"/>
			<point x="329" y="150" type="curve" smooth="yes"/>
			<point x="329" y="71"/>
			<point x="288" y="37"/>
			<point x="210" y="37" type="curve" smooth="yes"/>
			<point x="188" y="37"/>
			<point x="175" y="42"/>
			<point x="155" y="50" type="curve"/>
			<point x="201" y="9" type="line"/>
			<point x="193" y="91" type="line" smooth="yes"/>
			<point x="186" y="153"/>
			<point x="160" y="171"/>
			<point x="120" y="171" type="curve" smooth="yes"/>
			<point x="96" y="171"/>
			<point x="70" y="159"/>
			<point x="59" y="131" type="curve"/>
			<point x="59" y="42"/>
			<point x="126" y="-13"/>
		</contour>
	</outline>
</glyph>
<glyph name="tonoscmb" format="2">
	<outline>
		<contour>
			<point x="-20" y="563" type="line"/>
			<point x="33" y="540" type="line"/>
			<point x="109" y="640" type="line" smooth="yes"/>
			<point x="135" y="674"/>
			<point x="150" y="697"/>
			<point x="150" y="726" type="curve" smooth="yes"/>
			<point x="150" y="764"/>
			<point x="121" y="787"/>
			<point x="85" y="787" type="curve" smooth="yes"/>
			<point x="49" y="787"/>
			<point x="29" y="767"/>
			<point x="15" y="709" type="curve" smooth="yes"/>
		</contour>
	</outline>
	<anchor name="_aboveLC" x="0" y="507"/>
</glyph>
<glyph name="zero.cap" format="2">
	<advance width="540"/>
	<outline>
		<contour>
			<point x="199" y="321" type="curve" smooth="yes"/>
			<point x="199" y="558"/>
			<point x="227" y="614"/>
			<point x="268" y="614" type="curve" smooth="yes"/>
			<point x="309" y="614"/>
			<point x="341" y="557"/>
			<point x="341" y="321" type="curve" smooth="yes"/>
			<point x="341" y="94"/>
			<point x="309" y="39"/>
			<point x="268" y="39" type="curve" smooth="yes"/>
			<point x="227" y="39"/>
			<point x="199" y="93"/>
		</contour>
		<contour>
			<point x="268" y="668" type="curve" smooth="yes"/>
			<point x="137" y="668"/>
			<point x="25" y="558"/>
			<point x="25" y="321" type="curve" smooth="yes"/>
			<point x="25" y="90"/>
			<point x="137" y="-16"/>
			<point x="268" y="-16" type="curve" smooth="yes"/>
			<point x="399" y="-16"/>
			<point x="515" y="90"/>
			<point x="515" y="321" type="curve" smooth="yes"/>
			<point x="515" y="558"/>
			<point x="399" y="668"/>
		</contour>
	</outline>
</glyph>
